<?xml version="1.0" standalone="no"?>
<!DOCTYPE svg PUBLIC "-//W3C//DTD SVG 20010904//EN"
 "http://www.w3.org/TR/2001/REC-SVG-20010904/DTD/svg10.dtd">
<svg version="1.0" xmlns="http://www.w3.org/2000/svg"
 width="2000.000000pt" height="1365.000000pt" viewBox="0 0 2000.000000 1365.000000"
 preserveAspectRatio="xMidYMid meet">

<g transform="translate(0.000000,1365.000000) scale(0.100000,-0.100000)"
fill="#000000" stroke="none">
<path d="M5003 13560 c-12 -5 -90 -12 -173 -16 -131 -6 -156 -10 -183 -28 -52
-35 -47 -59 27 -136 83 -86 98 -121 100 -230 1 -82 -1 -88 -41 -160 -23 -41
-49 -101 -57 -132 -21 -80 -39 -116 -91 -175 -26 -30 -60 -86 -81 -135 -19
-45 -50 -111 -69 -145 -19 -34 -47 -100 -64 -146 -16 -47 -50 -122 -75 -168
-24 -46 -52 -109 -62 -139 -9 -30 -38 -86 -64 -125 -64 -96 -84 -137 -110
-230 -27 -97 -143 -339 -238 -496 -39 -64 -91 -158 -117 -210 -26 -52 -67
-122 -91 -157 -59 -85 -70 -109 -78 -167 -4 -27 -12 -71 -18 -97 -22 -90 40
-183 130 -195 105 -14 249 107 272 228 8 40 20 63 54 99 24 25 49 64 56 86 15
47 175 351 200 379 9 11 45 62 80 114 34 51 77 109 95 130 18 20 60 86 95 146
34 61 77 129 96 152 47 57 256 243 296 263 101 51 167 80 185 80 35 0 71 -38
88 -93 10 -28 28 -69 41 -89 34 -54 46 -150 34 -289 -14 -157 -19 -180 -45
-209 -41 -45 -83 -133 -100 -208 -13 -58 -25 -82 -60 -123 -24 -28 -57 -79
-73 -113 -78 -163 -154 -181 -349 -82 -50 24 -110 47 -139 51 l-52 7 -45 -56
c-53 -66 -87 -148 -87 -213 0 -44 3 -49 87 -134 53 -55 99 -93 121 -100 20 -7
75 -10 135 -7 94 4 112 8 222 52 133 54 147 62 293 190 119 103 209 210 256
305 47 92 202 448 236 540 46 128 72 256 73 361 0 83 -4 106 -32 180 -18 47
-37 112 -42 145 -14 83 -38 116 -111 155 -35 18 -70 39 -78 46 -16 14 -108 34
-184 41 -26 3 -89 -3 -139 -13 -78 -15 -97 -22 -131 -54 -23 -20 -69 -58 -103
-84 -59 -44 -66 -47 -115 -44 l-53 3 -3 53 c-3 52 -2 54 50 105 69 68 115 156
133 254 14 71 19 82 60 121 41 39 45 47 45 91 0 52 11 72 81 146 23 25 50 71
69 120 17 44 49 109 70 145 42 72 60 140 60 233 0 94 -17 111 -158 162 -74 27
-94 29 -129 15z"/>
<path d="M3820 13502 c-14 -1 -50 -9 -80 -18 -46 -13 -87 -14 -245 -9 -297 11
-497 9 -581 -5 -76 -13 -76 -13 -126 -73 -45 -55 -49 -63 -43 -96 11 -57 46
-92 146 -146 91 -49 94 -51 102 -94 9 -43 7 -46 -56 -140 -174 -256 -515 -568
-781 -715 -77 -42 -158 -81 -180 -87 -23 -6 -65 -19 -94 -30 -52 -19 -52 -19
-72 1 -24 24 -25 71 -5 183 9 52 23 93 44 125 17 26 50 88 74 137 58 118 114
209 191 310 34 45 78 105 96 134 27 41 58 69 146 127 156 105 158 108 159 204
0 76 -1 80 -33 113 l-33 34 -347 7 c-353 7 -468 2 -657 -30 -49 -8 -94 -19
-99 -24 -5 -5 -6 -20 -2 -33 4 -19 28 -36 95 -71 78 -40 93 -53 121 -98 30
-49 32 -56 28 -133 -3 -71 -7 -88 -35 -133 -19 -30 -37 -77 -43 -113 -17 -90
-62 -222 -121 -350 -28 -63 -64 -143 -79 -179 -60 -144 -415 -931 -460 -1020
-74 -146 -139 -306 -165 -403 -13 -49 -33 -108 -45 -132 -26 -54 -103 -133
-167 -171 -45 -27 -57 -29 -205 -35 -218 -10 -268 -34 -268 -126 0 -21 5 -55
11 -76 9 -33 18 -42 63 -63 67 -31 159 -48 211 -39 22 3 76 17 120 31 102 33
332 55 635 63 208 6 228 8 267 29 23 12 47 31 53 41 23 44 12 63 -105 176
l-115 112 0 59 c0 32 5 79 11 104 16 71 108 290 138 329 16 20 34 56 41 81 7
25 29 86 50 135 21 50 41 109 45 131 7 48 32 78 140 174 84 74 104 81 155 55
52 -27 139 -166 204 -325 15 -36 31 -74 36 -85 5 -11 14 -40 21 -65 6 -25 23
-74 39 -110 15 -36 30 -92 35 -125 4 -38 22 -91 49 -145 39 -82 41 -89 41
-180 0 -122 -15 -150 -135 -260 -97 -89 -123 -125 -118 -168 4 -35 42 -43 178
-36 107 5 166 11 390 40 99 13 161 15 300 9 96 -4 191 -7 210 -6 19 1 73 1
119 2 70 0 90 4 121 24 57 36 80 71 80 122 0 37 -6 50 -37 83 -35 36 -45 41
-112 50 -92 13 -132 30 -252 113 -108 74 -159 126 -159 161 0 13 -35 80 -77
148 -99 159 -154 277 -193 413 -42 148 -61 195 -147 366 -42 86 -73 159 -73
177 0 16 -11 54 -24 82 -35 75 -27 86 113 160 64 34 149 87 190 116 41 30 86
57 100 60 73 16 128 41 203 91 46 30 121 74 168 99 53 27 129 81 200 141 113
95 398 293 530 368 36 20 89 51 117 69 32 20 88 42 138 54 47 12 99 31 115 42
15 11 52 25 80 30 68 13 105 41 125 94 21 55 11 92 -33 122 -30 20 -43 22
-224 20 -106 0 -204 -2 -218 -4z"/>
<path d="M12823 13445 c-85 -42 -123 -76 -123 -109 0 -33 69 -107 155 -164 84
-56 115 -99 115 -157 0 -33 -6 -47 -31 -71 -47 -44 -112 -140 -149 -219 -18
-38 -45 -88 -60 -110 -15 -22 -38 -65 -52 -95 -13 -30 -49 -84 -79 -120 -77
-91 -92 -115 -127 -199 -17 -41 -43 -91 -58 -112 -25 -36 -30 -39 -74 -39 -25
0 -71 7 -101 16 -115 35 -332 13 -465 -46 -28 -12 -80 -22 -137 -26 -67 -5
-105 -13 -139 -30 -38 -19 -342 -241 -537 -391 -55 -43 -233 -275 -284 -372
-26 -49 -68 -151 -92 -224 -24 -74 -54 -154 -66 -178 -21 -39 -24 -58 -24
-174 0 -105 3 -136 17 -162 21 -37 86 -92 143 -121 133 -66 328 -16 509 132
72 59 83 64 140 70 41 5 84 19 131 43 88 46 156 51 186 14 21 -26 25 -68 8
-105 -25 -55 71 -201 148 -227 50 -16 153 -13 222 6 31 9 99 41 152 71 52 30
104 54 114 54 23 0 266 239 305 300 15 25 31 59 35 76 5 27 2 35 -21 53 -40
31 -77 26 -157 -21 -80 -48 -141 -56 -189 -24 -40 26 -41 41 -8 116 16 38 30
78 30 89 0 45 186 357 227 380 10 5 18 37 25 92 6 46 19 100 29 121 10 20 30
66 43 101 32 86 48 110 118 182 47 49 63 75 88 143 35 97 121 229 274 421 121
152 119 149 135 214 6 26 25 73 42 105 31 57 165 253 266 388 57 78 61 94 42
185 -25 114 -100 141 -364 132 -122 -5 -161 -3 -207 11 -74 21 -75 21 -155
-19z m-788 -1740 c33 -32 32 -71 -4 -153 -16 -37 -34 -90 -41 -119 -23 -101
-108 -216 -312 -424 -75 -76 -155 -146 -205 -180 -51 -34 -87 -66 -96 -85 -20
-41 -90 -74 -158 -74 -46 0 -55 4 -89 38 -72 72 -76 155 -16 317 55 146 105
236 198 357 80 103 86 108 163 144 44 20 116 58 160 84 157 94 224 119 313
120 54 0 66 -4 87 -25z"/>
<path d="M8903 12416 c-66 -31 -124 -71 -256 -176 l-107 -85 -69 -135 c-38
-74 -88 -171 -110 -215 -23 -44 -41 -89 -41 -101 0 -23 69 -122 95 -137 11 -6
49 23 151 117 75 70 142 126 150 126 22 0 26 -18 10 -48 -8 -16 -20 -51 -26
-78 -7 -27 -36 -101 -66 -164 -42 -89 -56 -134 -66 -200 -10 -71 -17 -90 -43
-120 -17 -19 -46 -60 -64 -90 -18 -30 -68 -102 -111 -160 -133 -178 -140 -203
-124 -404 l7 -76 63 -31 c62 -31 66 -31 121 -20 141 28 233 118 363 356 134
244 191 338 226 375 18 19 44 61 58 92 16 34 41 69 64 88 22 17 59 68 91 124
34 60 62 98 79 107 15 7 52 36 82 65 31 30 72 57 95 64 54 17 72 34 110 110
24 46 53 81 100 123 59 50 71 57 109 57 29 0 52 -7 70 -21 55 -44 25 -192 -72
-346 -28 -44 -57 -96 -65 -115 -8 -18 -44 -69 -82 -112 -75 -89 -91 -119 -100
-189 -9 -70 -65 -171 -215 -388 l-132 -192 4 -77 c4 -91 17 -111 106 -162 52
-30 57 -30 150 -26 112 6 140 16 346 120 199 100 211 109 246 178 26 52 35 61
70 70 36 10 43 17 75 84 50 105 53 129 20 162 -26 26 -30 26 -98 20 -40 -3
-96 -9 -126 -12 l-54 -7 7 64 c10 83 37 163 81 236 20 32 42 81 50 109 10 32
28 63 52 85 32 31 132 216 133 245 0 7 25 34 54 62 45 41 63 68 101 151 60
134 70 183 55 268 -6 37 -16 76 -22 87 -11 22 -73 79 -117 108 -33 22 -104 23
-162 2 -24 -8 -80 -19 -123 -24 -64 -8 -91 -17 -145 -48 -47 -28 -83 -42 -125
-47 -56 -6 -62 -10 -142 -86 -47 -43 -107 -90 -134 -104 -33 -17 -63 -43 -89
-79 -22 -29 -52 -63 -67 -75 -30 -23 -69 -28 -80 -9 -14 22 -6 116 10 140 13
18 16 50 16 147 0 124 0 125 -32 173 -41 59 -67 68 -203 68 -85 0 -108 -4
-152 -24z"/>
<path d="M14930 12274 c-47 -36 -89 -68 -93 -72 -29 -25 -112 -192 -138 -274
-19 -62 -42 -114 -64 -142 -19 -25 -44 -64 -56 -88 -12 -24 -36 -61 -54 -83
-18 -22 -44 -62 -58 -90 -14 -27 -59 -82 -99 -121 -44 -43 -92 -103 -120 -151
-26 -43 -64 -99 -85 -124 -21 -24 -64 -75 -95 -114 -107 -132 -207 -215 -291
-239 -44 -13 -59 -24 -86 -61 -52 -72 -116 -95 -145 -53 -23 33 -20 68 10 112
16 23 32 68 40 109 16 84 55 169 122 268 66 100 106 173 132 241 12 32 36 76
55 98 19 22 48 66 66 98 18 31 70 96 115 144 75 80 89 102 163 253 85 175 93
207 67 270 -19 44 -42 55 -119 55 -136 0 -317 -46 -392 -99 -22 -16 -87 -52
-145 -81 -135 -68 -194 -106 -258 -166 -28 -27 -58 -56 -67 -64 -10 -8 -29
-28 -44 -43 -14 -16 -49 -46 -77 -67 -36 -26 -60 -56 -78 -92 l-25 -53 30 -26
c66 -58 73 -58 158 -12 86 46 170 74 200 66 42 -11 23 -85 -81 -323 -69 -156
-106 -219 -210 -358 -149 -199 -198 -298 -206 -419 -4 -64 -1 -79 22 -127 27
-56 133 -163 188 -192 25 -13 34 -12 95 11 37 14 109 48 158 74 50 27 106 54
126 60 19 6 62 34 94 61 45 38 69 51 104 55 25 4 55 9 65 12 21 6 185 168 254
250 42 51 154 134 201 148 47 14 54 -47 17 -146 -13 -35 -26 -89 -30 -119 -4
-30 -16 -70 -27 -88 -40 -68 -15 -180 52 -236 50 -43 95 -58 168 -57 124 1
182 32 331 176 58 55 123 112 145 127 23 14 53 41 69 59 39 47 116 169 116
184 0 7 18 33 41 58 37 43 42 54 55 139 18 124 19 118 -21 118 -74 0 -154 -66
-366 -297 -81 -88 -100 -93 -123 -26 -29 85 -19 119 54 181 39 32 45 41 42 71
-3 25 4 45 27 76 19 27 32 60 37 94 5 41 20 72 61 135 52 78 86 142 153 291
17 39 49 98 72 132 22 34 44 82 49 105 5 24 24 87 41 142 l32 99 -22 41 c-11
22 -24 57 -27 77 -9 52 -69 79 -168 78 l-72 -1 -85 -64z"/>
<path d="M7525 12231 c-100 -33 -179 -38 -296 -20 -133 21 -275 -19 -419 -119
-112 -76 -253 -188 -259 -204 -4 -8 -46 -50 -96 -94 -123 -110 -141 -133 -272
-339 -192 -303 -280 -502 -328 -740 -36 -176 -28 -204 87 -309 l73 -67 90 3
90 3 115 88 c262 199 330 255 377 305 55 58 88 67 124 31 22 -22 23 -41 3
-240 l-6 -66 38 -37 c21 -20 67 -51 103 -69 62 -30 72 -32 160 -29 107 3 135
14 253 103 88 65 275 244 293 280 8 15 50 65 93 112 82 88 92 111 92 208 0 28
-2 29 -45 29 -107 0 -272 -83 -357 -181 -63 -71 -109 -103 -138 -94 -42 13
-39 116 6 192 15 26 38 75 50 108 69 195 98 262 120 283 30 28 50 67 108 211
36 90 55 124 95 165 86 91 131 207 131 336 0 135 -27 170 -134 176 -48 3 -81
-2 -151 -25z m-382 -361 c47 -37 59 -126 32 -235 -8 -33 -19 -94 -25 -134 -7
-56 -16 -81 -34 -100 -13 -15 -33 -41 -43 -58 -18 -30 -128 -137 -194 -188
-15 -12 -33 -34 -42 -51 -21 -41 -172 -184 -240 -227 -113 -73 -163 -89 -212
-71 -40 16 -61 109 -46 204 11 69 77 216 132 296 24 35 34 64 43 128 13 89 21
102 126 219 82 90 232 191 333 223 66 20 140 18 170 -6z"/>
<path d="M19087 8570 c-119 -7 -133 -10 -201 -44 -76 -37 -139 -96 -134 -124
2 -8 50 -48 108 -87 152 -103 183 -165 161 -317 -8 -59 -17 -78 -75 -161 -67
-96 -91 -157 -125 -320 -10 -46 -26 -75 -74 -138 -87 -113 -93 -123 -118 -203
-26 -83 -57 -145 -100 -203 -24 -31 -33 -56 -36 -95 -7 -81 -76 -276 -158
-448 -40 -85 -98 -216 -129 -290 -30 -75 -80 -189 -111 -255 -199 -419 -243
-568 -201 -669 21 -50 74 -86 127 -86 53 0 134 36 170 76 29 32 159 285 179
349 19 60 68 154 95 181 54 54 90 25 236 -194 62 -92 126 -182 143 -200 65
-71 123 -87 383 -112 l121 -12 71 45 c104 68 148 148 139 255 -4 45 -10 60
-32 79 -34 29 -55 29 -163 -3 -58 -16 -99 -23 -121 -19 -32 6 -80 47 -158 135
-17 19 -50 51 -73 71 l-42 37 3 133 3 133 50 41 c46 37 62 43 160 63 61 11
142 26 180 32 83 13 132 34 213 89 33 22 85 51 115 65 77 34 129 85 193 190
31 50 63 99 72 108 12 14 15 47 16 157 l1 139 -40 58 c-57 84 -114 116 -213
122 -146 8 -372 -46 -521 -124 -73 -39 -92 -44 -134 -42 -73 4 -79 21 -39 105
17 37 36 87 42 110 6 24 26 69 44 100 25 42 36 76 41 123 7 60 11 68 57 115
56 57 99 146 157 325 44 134 59 166 112 233 57 72 82 164 77 281 -7 163 -46
197 -232 201 -61 2 -169 0 -239 -5z m390 -1810 c46 -28 56 -53 51 -129 -6 -79
-27 -125 -69 -147 -17 -9 -60 -43 -96 -76 -76 -70 -120 -91 -228 -108 -44 -6
-95 -20 -113 -31 -99 -57 -223 26 -239 159 l-6 51 108 106 c117 117 156 140
285 170 41 9 80 18 85 20 6 2 51 4 100 4 72 1 96 -3 122 -19z"/>
<path d="M14473 8460 c-12 -5 -90 -12 -173 -16 -131 -6 -156 -10 -183 -28 -52
-35 -47 -59 27 -136 83 -86 98 -121 100 -230 1 -82 -1 -88 -41 -160 -23 -41
-49 -101 -57 -132 -21 -80 -39 -116 -91 -175 -26 -30 -60 -86 -81 -135 -19
-45 -50 -111 -69 -145 -19 -34 -47 -100 -64 -146 -16 -47 -50 -122 -75 -168
-24 -46 -52 -109 -62 -139 -9 -30 -38 -86 -64 -125 -64 -96 -84 -137 -110
-230 -27 -97 -143 -339 -238 -496 -39 -64 -91 -158 -117 -210 -26 -52 -67
-122 -91 -157 -59 -85 -70 -109 -78 -167 -4 -27 -12 -71 -18 -97 -22 -90 40
-183 130 -195 105 -14 249 107 272 228 8 40 20 63 54 99 24 25 49 64 56 86 15
47 175 351 200 379 9 11 45 62 80 114 34 51 77 109 95 130 18 20 60 86 95 146
34 61 77 129 96 152 47 57 256 243 296 263 101 51 167 80 185 80 35 0 71 -38
88 -93 10 -28 28 -69 41 -89 34 -54 46 -150 34 -289 -14 -157 -19 -180 -45
-209 -41 -45 -83 -133 -100 -208 -13 -58 -25 -82 -60 -123 -24 -28 -57 -79
-73 -113 -78 -163 -154 -181 -349 -82 -50 24 -110 47 -139 51 l-52 7 -45 -56
c-53 -66 -87 -148 -87 -213 0 -44 3 -49 87 -134 53 -55 99 -93 121 -100 20 -7
75 -10 135 -7 94 4 112 8 222 52 133 54 147 62 293 190 119 103 209 210 256
305 47 92 202 448 236 540 46 128 72 256 73 361 0 83 -4 106 -32 180 -18 47
-37 112 -42 145 -14 83 -38 116 -111 155 -35 18 -70 39 -78 46 -16 14 -108 34
-184 41 -26 3 -89 -3 -139 -13 -78 -15 -97 -22 -131 -54 -23 -20 -69 -58 -103
-84 -59 -44 -66 -47 -115 -44 l-53 3 -3 53 c-3 52 -2 54 50 105 69 68 115 156
133 254 14 71 19 82 60 121 41 39 45 47 45 91 0 52 11 72 81 146 23 25 50 71
69 120 17 44 49 109 70 145 42 72 60 140 60 233 0 94 -17 111 -158 162 -74 27
-94 29 -129 15z"/>
<path d="M1310 8252 c-17 -5 -26 -16 -28 -34 -4 -31 13 -43 162 -118 91 -46
146 -95 146 -131 0 -11 -13 -45 -29 -77 -15 -31 -39 -86 -51 -122 -13 -36 -37
-84 -53 -106 -21 -31 -31 -60 -38 -114 -10 -81 -33 -137 -108 -264 -62 -105
-76 -137 -91 -213 -7 -32 -21 -76 -32 -98 -11 -22 -29 -58 -40 -79 -11 -22
-35 -81 -54 -133 -18 -51 -49 -116 -68 -143 -22 -32 -37 -68 -41 -98 -11 -78
-25 -125 -49 -162 -12 -19 -86 -161 -163 -315 -78 -154 -171 -327 -207 -385
-74 -118 -116 -231 -116 -315 0 -77 5 -85 54 -85 99 0 271 78 313 142 29 43
174 174 221 200 17 9 40 34 51 57 13 25 47 60 95 96 41 30 166 134 278 230
111 97 244 203 293 237 50 34 119 87 155 118 36 31 76 60 90 63 14 3 58 36 98
71 73 66 107 88 152 99 14 4 61 36 104 72 85 71 209 135 261 135 53 0 58 -15
50 -142 -7 -119 -5 -111 -108 -338 -13 -30 -59 -102 -101 -160 -42 -58 -93
-138 -113 -179 -20 -41 -58 -102 -84 -136 -101 -131 -142 -248 -143 -403 -1
-114 5 -127 59 -116 40 8 167 84 252 151 37 30 158 134 268 232 110 98 213
181 228 185 15 3 59 34 98 69 39 34 102 80 140 103 39 22 94 65 122 95 29 30
115 98 192 152 77 53 232 169 345 257 144 112 232 174 296 205 66 33 116 68
185 130 52 47 114 98 138 113 24 15 64 45 90 68 25 22 73 57 106 77 33 20 114
81 179 135 65 55 155 122 200 148 59 35 116 83 206 174 137 137 200 178 310
204 41 10 74 25 94 44 36 33 77 52 112 52 28 0 59 14 89 40 11 10 45 21 76 24
46 6 69 16 118 53 62 46 69 59 51 94 -16 29 -58 46 -142 58 -42 6 -107 22
-143 36 -82 30 -84 30 -198 3 l-91 -21 -86 22 c-125 32 -293 29 -512 -8 -221
-38 -249 -54 -233 -137 10 -55 58 -102 124 -120 145 -40 171 -59 171 -127 0
-49 -19 -76 -80 -118 -33 -22 -58 -49 -71 -77 -16 -33 -33 -49 -73 -68 -31
-16 -84 -59 -136 -113 -66 -68 -103 -97 -166 -129 -51 -26 -84 -50 -92 -66 -7
-16 -44 -41 -118 -78 -84 -41 -113 -61 -133 -91 -14 -21 -63 -78 -109 -126
-64 -69 -106 -102 -185 -149 -59 -34 -141 -95 -194 -143 -51 -46 -125 -105
-165 -132 -40 -26 -108 -72 -151 -102 -78 -55 -79 -55 -153 -55 -41 0 -74 2
-74 4 0 2 9 23 20 47 11 24 20 66 20 92 0 57 16 90 65 137 49 47 65 80 65 135
0 56 16 95 73 179 30 44 47 80 52 113 9 63 31 113 87 195 26 37 53 91 62 120
8 29 51 127 96 217 44 90 80 174 80 187 0 34 44 79 92 93 23 7 62 26 85 43 29
19 69 34 119 43 86 17 86 17 142 66 l42 36 -20 53 c-11 30 -26 60 -33 67 -9
10 -75 16 -229 24 -195 9 -227 8 -343 -10 -87 -13 -136 -16 -152 -10 -32 12
-340 11 -427 -1 -49 -7 -80 -18 -104 -37 l-35 -26 37 -22 c21 -13 49 -34 64
-48 15 -14 62 -41 105 -61 42 -21 84 -47 92 -60 19 -29 40 -183 31 -231 -5
-27 -27 -57 -80 -113 -40 -42 -98 -111 -129 -154 -63 -85 -109 -126 -212 -188
-43 -25 -117 -88 -190 -160 -66 -65 -152 -138 -192 -164 -47 -29 -86 -64 -112
-100 -35 -47 -54 -61 -136 -101 -81 -40 -102 -55 -140 -105 -29 -36 -65 -67
-98 -85 -29 -15 -75 -51 -102 -79 -58 -60 -137 -95 -231 -103 -62 -6 -119 12
-130 40 -9 25 27 101 89 185 76 103 84 118 104 185 8 29 26 72 38 97 13 25 26
72 30 105 4 35 20 90 39 130 19 39 41 95 51 125 27 86 66 158 133 248 34 46
66 102 72 125 28 105 37 123 86 176 29 32 54 70 58 89 11 49 57 86 156 127 49
21 95 44 102 52 6 8 13 38 16 66 5 66 -7 78 -109 106 -89 25 -148 26 -215 6
-59 -18 -166 -19 -214 -3 -19 6 -118 15 -220 19 -102 4 -205 10 -230 13 -25 3
-56 2 -70 -2z"/>
<path d="M7613 7316 c-66 -31 -124 -71 -256 -176 l-107 -85 -69 -135 c-38 -74
-88 -171 -110 -215 -23 -44 -41 -89 -41 -101 0 -23 69 -122 95 -137 11 -6 49
23 151 117 75 70 142 126 150 126 22 0 26 -18 10 -48 -8 -16 -20 -51 -26 -78
-7 -27 -36 -101 -66 -164 -42 -89 -56 -134 -66 -200 -10 -71 -17 -90 -43 -120
-17 -19 -46 -60 -64 -90 -18 -30 -68 -102 -111 -160 -133 -178 -140 -203 -124
-404 l7 -76 63 -31 c62 -31 66 -31 121 -20 141 28 233 118 363 356 134 244
191 338 226 375 18 19 44 61 58 92 16 34 41 69 64 88 22 17 59 68 91 124 34
60 62 98 79 107 15 7 52 36 82 65 31 30 72 57 95 64 54 17 72 34 110 110 24
46 53 81 100 123 59 50 71 57 109 57 29 0 52 -7 70 -21 55 -44 25 -192 -72
-346 -28 -44 -57 -96 -65 -115 -8 -18 -44 -69 -82 -112 -75 -89 -91 -119 -100
-189 -9 -70 -65 -171 -215 -388 l-132 -192 4 -77 c4 -91 17 -111 106 -162 52
-30 57 -30 150 -26 112 6 140 16 346 120 199 100 211 109 246 178 26 52 35 61
70 70 36 10 43 17 75 84 50 105 53 129 20 162 -26 26 -30 26 -98 20 -40 -3
-96 -9 -126 -12 l-54 -7 7 64 c10 83 37 163 81 236 20 32 42 81 50 109 10 32
28 63 52 85 32 31 132 216 133 245 0 7 25 34 54 62 45 41 63 68 101 151 60
134 70 183 55 268 -6 37 -16 76 -22 87 -11 22 -73 79 -117 108 -33 22 -104 23
-162 2 -24 -8 -80 -19 -123 -24 -64 -8 -91 -17 -145 -48 -47 -28 -83 -42 -125
-47 -56 -6 -62 -10 -142 -86 -47 -43 -107 -90 -134 -104 -33 -17 -63 -43 -89
-79 -22 -29 -52 -63 -67 -75 -30 -23 -69 -28 -80 -9 -14 22 -6 116 10 140 13
18 16 50 16 147 0 124 0 125 -32 173 -41 59 -67 68 -203 68 -85 0 -108 -4
-152 -24z"/>
<path d="M10300 7320 c-30 -11 -79 -23 -109 -27 -49 -5 -61 -12 -121 -67 -37
-34 -101 -86 -143 -116 -64 -46 -78 -63 -94 -104 -10 -28 -33 -62 -54 -80 -23
-20 -38 -43 -42 -66 -4 -19 -30 -81 -58 -137 l-52 -103 1 -111 c1 -144 15
-209 63 -291 31 -53 39 -76 39 -117 l0 -51 -92 -43 c-89 -42 -96 -47 -157
-128 l-63 -84 5 -82 c3 -57 12 -97 29 -135 25 -53 36 -64 128 -131 55 -40 64
-73 23 -87 -15 -5 -37 -15 -48 -22 -103 -61 -108 -63 -201 -64 -78 0 -96 -4
-123 -23 -18 -13 -58 -36 -89 -52 -34 -17 -97 -67 -154 -122 -107 -102 -110
-108 -128 -262 -17 -153 -15 -167 31 -225 22 -28 46 -70 53 -93 10 -37 22 -49
102 -103 80 -54 103 -64 200 -87 86 -21 121 -35 166 -67 31 -22 60 -40 64 -40
3 0 41 -15 83 -34 l76 -35 210 11 c116 6 327 13 471 17 l261 6 46 30 c80 52
237 176 252 199 21 31 53 129 70 209 20 90 19 197 -2 335 l-16 113 -47 34
c-69 51 -135 80 -236 104 -80 20 -100 30 -180 88 -132 98 -244 169 -289 183
-22 6 -60 23 -85 36 -25 13 -86 44 -137 69 -80 40 -97 53 -138 108 -44 58 -47
65 -41 107 10 72 34 135 64 162 36 34 226 66 287 49 22 -6 55 -11 74 -11 41 0
191 50 268 89 81 41 329 280 373 358 18 32 42 72 55 88 12 17 34 66 49 110 49
142 100 207 174 221 64 12 243 -10 288 -36 47 -27 67 -24 136 20 64 40 75 61
83 157 l6 81 -32 33 c-17 17 -38 47 -45 66 l-14 33 -73 0 c-101 0 -152 -27
-271 -139 -76 -73 -101 -91 -125 -91 -40 0 -81 37 -120 109 -39 74 -164 193
-241 230 -51 24 -66 26 -205 28 -128 2 -158 0 -205 -17z m274 -259 c3 -4 10
-51 16 -102 10 -83 9 -105 -9 -191 -24 -114 -48 -165 -131 -277 -117 -158
-189 -222 -310 -272 -65 -28 -72 -29 -99 -15 -49 26 -63 93 -36 183 9 29 22
99 29 158 20 150 39 184 201 352 104 108 146 145 178 157 46 16 153 21 161 7z
m-618 -1870 c53 -20 102 -49 145 -85 52 -43 84 -60 155 -82 81 -26 94 -35 147
-89 31 -33 69 -77 84 -98 33 -47 46 -122 28 -158 -19 -35 -138 -146 -207 -192
-70 -46 -142 -57 -376 -57 -124 0 -157 3 -178 16 -14 9 -61 20 -109 25 l-84 9
-83 79 c-46 44 -114 108 -151 143 l-68 63 12 35 c7 19 29 54 51 77 21 24 38
49 38 57 0 30 56 80 128 113 57 26 89 49 145 107 l72 74 85 -3 c67 -2 102 -9
166 -34z"/>
<path d="M12520 7230 c-30 -4 -69 -14 -85 -23 -17 -8 -49 -19 -70 -22 -55 -10
-157 -58 -216 -100 -26 -19 -61 -38 -76 -41 -34 -9 -69 -29 -106 -63 -15 -14
-48 -36 -74 -50 -121 -66 -288 -356 -333 -577 -11 -54 -34 -130 -52 -169 -32
-70 -32 -70 -36 -267 -4 -188 -3 -201 23 -300 15 -56 38 -136 52 -176 l26 -74
101 -69 c125 -87 178 -104 296 -96 70 5 97 12 155 41 39 19 89 40 111 46 49
12 69 26 199 146 91 84 103 99 128 164 37 95 47 151 35 204 -12 58 -38 81 -89
79 -62 -3 -78 -11 -106 -56 -14 -23 -47 -64 -73 -92 -25 -27 -62 -72 -82 -100
-48 -66 -106 -121 -142 -135 -24 -9 -35 -7 -74 15 -90 50 -132 89 -174 160
-36 60 -42 79 -46 141 -2 40 -1 106 3 148 6 67 11 81 41 117 34 41 44 67 63
173 13 70 33 112 97 198 25 34 64 99 85 142 26 53 60 102 103 145 35 36 66 76
70 88 4 12 31 38 61 58 30 19 60 41 67 48 35 35 123 46 204 26 50 -13 71 -39
113 -139 13 -30 35 -68 50 -83 64 -70 211 -108 278 -74 17 9 59 45 93 79 l62
63 -7 84 c-3 47 -12 99 -19 115 -18 41 -150 167 -204 195 -63 32 -312 49 -452
31z"/>
<path d="M17340 7174 c-47 -36 -89 -68 -93 -72 -29 -25 -112 -192 -138 -274
-19 -62 -42 -114 -64 -142 -19 -25 -44 -64 -56 -88 -12 -24 -36 -61 -54 -83
-18 -22 -44 -62 -58 -90 -14 -27 -59 -82 -99 -121 -44 -43 -92 -103 -120 -151
-26 -43 -64 -99 -85 -124 -21 -24 -64 -75 -95 -114 -107 -132 -207 -215 -291
-239 -44 -13 -59 -24 -86 -61 -52 -72 -116 -95 -145 -53 -23 33 -20 68 10 112
16 23 32 68 40 109 16 84 55 169 122 268 66 100 106 173 132 241 12 32 36 76
55 98 19 22 48 66 66 98 18 31 70 96 115 144 75 80 89 102 163 253 85 175 93
207 67 270 -19 44 -42 55 -119 55 -136 0 -317 -46 -392 -99 -22 -16 -87 -52
-145 -81 -135 -68 -194 -106 -258 -166 -28 -27 -58 -56 -67 -64 -10 -8 -29
-28 -44 -43 -14 -16 -49 -46 -77 -67 -36 -26 -60 -56 -78 -92 l-25 -53 30 -26
c66 -58 73 -58 158 -12 86 46 170 74 200 66 42 -11 23 -85 -81 -323 -69 -156
-106 -219 -210 -358 -149 -199 -198 -298 -206 -419 -4 -64 -1 -79 22 -127 27
-56 133 -163 188 -192 25 -13 34 -12 95 11 37 14 109 48 158 74 50 27 106 54
126 60 19 6 62 34 94 61 45 38 69 51 104 55 25 4 55 9 65 12 21 6 185 168 254
250 42 51 154 134 201 148 47 14 54 -47 17 -146 -13 -35 -26 -89 -30 -119 -4
-30 -16 -70 -27 -88 -40 -68 -15 -180 52 -236 50 -43 95 -58 168 -57 124 1
182 32 331 176 58 55 123 112 145 127 23 14 53 41 69 59 39 47 116 169 116
184 0 7 18 33 41 58 37 43 42 54 55 139 18 124 19 118 -21 118 -74 0 -154 -66
-366 -297 -81 -88 -100 -93 -123 -26 -29 85 -19 119 54 181 39 32 45 41 42 71
-3 25 4 45 27 76 19 27 32 60 37 94 5 41 20 72 61 135 52 78 86 142 153 291
17 39 49 98 72 132 22 34 44 82 49 105 5 24 24 87 41 142 l32 99 -22 41 c-11
22 -24 57 -27 77 -9 52 -69 79 -168 78 l-72 -1 -85 -64z"/>
<path d="M6235 7131 c-100 -33 -179 -38 -296 -20 -133 21 -275 -19 -419 -119
-112 -76 -253 -188 -259 -204 -4 -8 -46 -50 -96 -94 -123 -110 -141 -133 -272
-339 -192 -303 -280 -502 -328 -740 -36 -176 -28 -204 87 -309 l73 -67 90 3
90 3 115 88 c262 199 330 255 377 305 55 58 88 67 124 31 22 -22 23 -41 3
-240 l-6 -66 38 -37 c21 -20 67 -51 103 -69 62 -30 72 -32 160 -29 107 3 135
14 253 103 88 65 275 244 293 280 8 15 50 65 93 112 82 88 92 111 92 208 0 28
-2 29 -45 29 -107 0 -272 -83 -357 -181 -63 -71 -109 -103 -138 -94 -42 13
-39 116 6 192 15 26 38 75 50 108 69 195 98 262 120 283 30 28 50 67 108 211
36 90 55 124 95 165 86 91 131 207 131 336 0 135 -27 170 -134 176 -48 3 -81
-2 -151 -25z m-382 -361 c47 -37 59 -126 32 -235 -8 -33 -19 -94 -25 -134 -7
-56 -16 -81 -34 -100 -13 -15 -33 -41 -43 -58 -18 -30 -128 -137 -194 -188
-15 -12 -33 -34 -42 -51 -21 -41 -172 -184 -240 -227 -113 -73 -163 -89 -212
-71 -40 16 -61 109 -46 204 11 69 77 216 132 296 24 35 34 64 43 128 13 89 21
102 126 219 82 90 232 191 333 223 66 20 140 18 170 -6z"/>
<path d="M4853 3360 c-12 -5 -90 -12 -173 -16 -131 -6 -156 -10 -183 -28 -52
-35 -47 -59 27 -136 83 -86 98 -121 100 -230 1 -82 -1 -88 -41 -160 -23 -41
-49 -101 -57 -132 -21 -80 -39 -116 -91 -175 -26 -30 -60 -86 -81 -135 -19
-45 -50 -111 -69 -145 -19 -34 -47 -100 -64 -146 -16 -47 -50 -122 -75 -168
-24 -46 -52 -109 -62 -139 -9 -30 -38 -86 -64 -125 -64 -96 -84 -137 -110
-230 -27 -97 -143 -339 -238 -496 -39 -64 -91 -158 -117 -210 -26 -52 -67
-122 -91 -157 -59 -85 -70 -109 -78 -167 -4 -27 -12 -71 -18 -97 -22 -90 40
-183 130 -195 105 -14 249 107 272 228 8 40 20 63 54 99 24 25 49 64 56 86 15
47 175 351 200 379 9 11 45 62 80 114 34 51 77 109 95 130 18 20 60 86 95 146
34 61 77 129 96 152 47 57 256 243 296 263 101 51 167 80 185 80 35 0 71 -38
88 -93 10 -28 28 -69 41 -89 34 -54 46 -150 34 -289 -14 -157 -19 -180 -45
-209 -41 -45 -83 -133 -100 -208 -13 -58 -25 -82 -60 -123 -24 -28 -57 -79
-73 -113 -78 -163 -154 -181 -349 -82 -50 24 -110 47 -139 51 l-52 7 -45 -56
c-53 -66 -87 -148 -87 -213 0 -44 3 -49 87 -134 53 -55 99 -93 121 -100 20 -7
75 -10 135 -7 94 4 112 8 222 52 133 54 147 62 293 190 119 103 209 210 256
305 47 92 202 448 236 540 46 128 72 256 73 361 0 83 -4 106 -32 180 -18 47
-37 112 -42 145 -14 83 -38 116 -111 155 -35 18 -70 39 -78 46 -16 14 -108 34
-184 41 -26 3 -89 -3 -139 -13 -78 -15 -97 -22 -131 -54 -23 -20 -69 -58 -103
-84 -59 -44 -66 -47 -115 -44 l-53 3 -3 53 c-3 52 -2 54 50 105 69 68 115 156
133 254 14 71 19 82 60 121 41 39 45 47 45 91 0 52 11 72 81 146 23 25 50 71
69 120 17 44 49 109 70 145 42 72 60 140 60 233 0 94 -17 111 -158 162 -74 27
-94 29 -129 15z"/>
<path d="M1820 3311 c-14 -5 -84 -9 -156 -10 l-131 -1 -71 -52 c-72 -52 -72
-53 -72 -100 0 -77 13 -94 114 -142 50 -24 101 -46 113 -50 27 -9 81 -69 88
-99 4 -15 -8 -52 -35 -107 -84 -175 -131 -252 -257 -425 -56 -78 -73 -119 -73
-178 0 -29 -12 -60 -49 -121 -65 -109 -87 -154 -95 -198 -5 -26 -22 -53 -58
-90 -33 -34 -74 -95 -114 -171 -35 -64 -74 -132 -88 -150 -53 -70 -99 -162
-121 -243 -15 -53 -37 -105 -59 -137 -20 -29 -72 -131 -116 -227 -44 -96 -101
-205 -126 -243 -95 -139 -230 -234 -368 -258 -92 -16 -122 -43 -137 -124 -13
-70 -7 -126 15 -160 16 -24 20 -25 134 -25 64 1 137 5 162 10 25 6 132 15 238
20 118 7 230 19 290 31 67 14 150 22 267 26 111 3 187 10 217 20 40 12 60 13
123 2 84 -13 250 -8 282 9 14 8 78 12 173 12 275 0 464 35 626 115 89 43 97
50 219 187 69 79 142 170 162 203 l35 59 -11 142 c-6 78 -11 194 -11 258 l0
116 35 51 c55 80 45 113 -50 174 -68 43 -85 75 -87 165 -3 95 14 113 138 140
103 22 209 63 292 112 86 51 248 218 304 313 65 112 148 307 148 347 -1 18 -9
94 -19 169 -17 132 -19 138 -61 198 -48 68 -294 281 -353 306 -19 8 -48 25
-64 39 -15 13 -67 35 -113 49 -85 26 -87 26 -565 32 -264 3 -527 7 -585 10
-58 2 -116 0 -130 -4z m822 -236 c156 -33 259 -75 324 -135 23 -21 50 -41 61
-44 22 -7 71 -65 97 -113 9 -18 21 -33 27 -33 5 0 26 -34 46 -77 32 -67 37
-85 37 -152 -1 -86 -16 -123 -89 -220 -53 -69 -59 -74 -111 -89 -22 -6 -85
-41 -139 -76 -68 -45 -142 -82 -241 -121 -119 -47 -149 -63 -173 -92 l-30 -36
-113 8 c-127 9 -138 9 -297 -1 -257 -15 -301 39 -206 247 25 54 45 106 45 117
0 10 26 45 58 77 38 40 74 92 106 155 27 52 59 109 71 125 12 17 43 72 69 122
40 82 60 106 168 213 149 147 161 152 290 125z m-776 -1356 c43 -16 120 -39
172 -49 89 -18 97 -22 151 -71 88 -82 262 -262 273 -283 6 -10 16 -78 23 -150
14 -152 8 -182 -56 -306 -70 -135 -253 -319 -369 -372 -36 -16 -83 -38 -105
-48 -22 -10 -52 -21 -67 -24 -15 -4 -33 -12 -41 -20 -9 -10 -57 -19 -138 -26
-68 -6 -153 -15 -189 -20 -36 -5 -124 -12 -197 -16 l-132 -7 -55 33 c-86 52
-89 70 -51 266 28 143 41 174 127 292 47 65 74 118 122 243 36 90 74 172 89
187 15 17 33 57 46 105 37 137 111 254 183 291 45 23 116 14 214 -25z"/>
<path d="M10885 3304 c-42 -21 -100 -80 -136 -136 -28 -43 -30 -53 -24 -97 14
-103 103 -232 178 -260 16 -6 80 -11 144 -11 106 0 120 2 159 25 75 44 134
161 134 267 0 46 -2 50 -88 138 l-88 90 -125 0 c-92 0 -132 -4 -154 -16z"/>
<path d="M9610 2589 c-110 -21 -237 -112 -290 -206 -61 -108 -145 -205 -220
-253 -28 -18 -79 -36 -135 -48 -79 -17 -153 -39 -249 -75 -32 -12 -61 -67 -51
-97 7 -23 50 -43 150 -71 107 -29 153 -53 161 -85 9 -37 -42 -245 -81 -331
-48 -105 -224 -423 -252 -457 -13 -16 -43 -65 -65 -110 -22 -44 -59 -112 -83
-151 -61 -100 -89 -162 -104 -225 -8 -30 -27 -81 -43 -113 -25 -51 -28 -66
-23 -111 9 -71 41 -125 89 -149 36 -19 44 -19 167 -7 121 12 132 15 176 46 27
19 91 53 143 76 123 53 273 136 380 209 165 112 187 141 171 219 -10 49 -40
62 -100 45 -25 -7 -66 -16 -91 -19 -27 -4 -75 -25 -120 -51 -57 -35 -84 -45
-118 -45 -105 0 -144 65 -79 134 24 25 41 59 57 113 24 83 54 148 94 208 14
19 39 77 57 128 25 69 56 127 125 228 50 75 108 169 129 209 50 94 116 178
167 213 40 26 44 27 188 27 128 0 154 3 196 21 96 42 136 108 114 189 -15 57
-51 73 -170 77 -117 5 -135 8 -160 33 -29 29 -25 78 15 161 57 119 43 234 -31
265 -37 15 -49 16 -114 3z"/>
<path d="M7720 2074 c-47 -36 -89 -68 -93 -72 -29 -25 -112 -192 -138 -274
-19 -62 -42 -114 -64 -142 -19 -25 -44 -64 -56 -88 -12 -24 -36 -61 -54 -83
-18 -22 -44 -62 -58 -90 -14 -27 -59 -82 -99 -121 -44 -43 -92 -103 -120 -151
-26 -43 -64 -99 -85 -124 -21 -24 -64 -75 -95 -114 -107 -132 -207 -215 -291
-239 -44 -13 -59 -24 -86 -61 -52 -72 -116 -95 -145 -53 -23 33 -20 68 10 112
16 23 32 68 40 109 16 84 55 169 122 268 66 100 106 173 132 241 12 32 36 76
55 98 19 22 48 66 66 98 18 31 70 96 115 144 75 80 89 102 163 253 85 175 93
207 67 270 -19 44 -42 55 -119 55 -136 0 -317 -46 -392 -99 -22 -16 -87 -52
-145 -81 -135 -68 -194 -106 -258 -166 -28 -27 -58 -56 -67 -64 -10 -8 -29
-28 -44 -43 -14 -16 -49 -46 -77 -67 -36 -26 -60 -56 -78 -92 l-25 -53 30 -26
c66 -58 73 -58 158 -12 86 46 170 74 200 66 42 -11 23 -85 -81 -323 -69 -156
-106 -219 -210 -358 -149 -199 -198 -298 -206 -419 -4 -64 -1 -79 22 -127 27
-56 133 -163 188 -192 25 -13 34 -12 95 11 37 14 109 48 158 74 50 27 106 54
126 60 19 6 62 34 94 61 45 38 69 51 104 55 25 4 55 9 65 12 21 6 185 168 254
250 42 51 154 134 201 148 47 14 54 -47 17 -146 -13 -35 -26 -89 -30 -119 -4
-30 -16 -70 -27 -88 -40 -68 -15 -180 52 -236 50 -43 95 -58 168 -57 124 1
182 32 331 176 58 55 123 112 145 127 23 14 53 41 69 59 39 47 116 169 116
184 0 7 18 33 41 58 37 43 42 54 55 139 18 124 19 118 -21 118 -74 0 -154 -66
-366 -297 -81 -88 -100 -93 -123 -26 -29 85 -19 119 54 181 39 32 45 41 42 71
-3 25 4 45 27 76 19 27 32 60 37 94 5 41 20 72 61 135 52 78 86 142 153 291
17 39 49 98 72 132 22 34 44 82 49 105 5 24 24 87 41 142 l32 99 -22 41 c-11
22 -24 57 -27 77 -9 52 -69 79 -168 78 l-72 -1 -85 -64z"/>
<path d="M10797 2079 c-86 -12 -175 -55 -356 -169 -201 -129 -244 -165 -265
-227 -32 -93 -13 -140 53 -129 98 15 189 18 209 7 18 -10 22 -21 22 -65 0 -45
-6 -62 -41 -117 -23 -35 -64 -110 -91 -166 -26 -56 -68 -129 -93 -162 -25 -33
-79 -116 -121 -183 -43 -68 -104 -163 -138 -213 -86 -128 -176 -332 -168 -383
6 -42 81 -108 141 -126 63 -18 188 -21 246 -5 52 14 367 170 414 205 112 83
140 132 105 182 -14 21 -22 22 -139 22 l-124 0 -16 30 c-35 68 -16 127 98 297
91 137 173 287 203 368 9 28 44 91 76 141 32 50 69 120 82 157 24 67 47 111
104 202 18 28 37 75 43 105 11 52 10 59 -17 124 -16 39 -40 77 -54 86 -31 22
-98 29 -173 19z"/>
<path d="M12785 2031 c-100 -33 -179 -38 -296 -20 -133 21 -275 -19 -419 -119
-112 -76 -253 -188 -259 -204 -4 -8 -46 -50 -96 -94 -123 -110 -141 -133 -272
-339 -192 -303 -280 -502 -328 -740 -36 -176 -28 -204 87 -309 l73 -67 90 3
90 3 115 88 c262 199 330 255 377 305 55 58 88 67 124 31 22 -22 23 -41 3
-240 l-6 -66 38 -37 c21 -20 67 -51 103 -69 62 -30 72 -32 160 -29 107 3 135
14 253 103 88 65 275 244 293 280 8 15 50 65 93 112 82 88 92 111 92 208 0 28
-2 29 -45 29 -107 0 -272 -83 -357 -181 -63 -71 -109 -103 -138 -94 -42 13
-39 116 6 192 15 26 38 75 50 108 69 195 98 262 120 283 30 28 50 67 108 211
36 90 55 124 95 165 86 91 131 207 131 336 0 135 -27 170 -134 176 -48 3 -81
-2 -151 -25z m-382 -361 c47 -37 59 -126 32 -235 -8 -33 -19 -94 -25 -134 -7
-56 -16 -81 -34 -100 -13 -15 -33 -41 -43 -58 -18 -30 -128 -137 -194 -188
-15 -12 -33 -34 -42 -51 -21 -41 -172 -184 -240 -227 -113 -73 -163 -89 -212
-71 -40 16 -61 109 -46 204 11 69 77 216 132 296 24 35 34 64 43 128 13 89 21
102 126 219 82 90 232 191 333 223 66 20 140 18 170 -6z"/>
</g>
</svg>
