<?xml version="1.0" encoding="UTF-8"?>
<svg version="1.1" xmlns="http://www.w3.org/2000/svg" width="400" height="400">
<path d="M0 0 C132 0 264 0 400 0 C400 132 400 264 400 400 C268 400 136 400 0 400 C0 268 0 136 0 0 Z " fill="#EF4B38" transform="translate(0,0)"/>
<path d="M0 0 C1.24910156 0.26683594 2.49820313 0.53367187 3.78515625 0.80859375 C16.97252836 3.87701022 28.88481215 9.9337946 39 19 C39.81984375 19.72703125 40.6396875 20.4540625 41.484375 21.203125 C54.73620816 33.65181676 61.78735267 49.3304397 65 67 C48.5 67 32 67 15 67 C13.35 63.7 11.7 60.4 10 57 C3.10116216 47.80154954 -5.6527941 42.18896454 -17 40 C-31.61719003 37.91431296 -46.00090929 39.3698337 -58.5390625 47.68359375 C-66.74128121 54.28103054 -71.20121711 63.74693754 -73 74 C-73.02390954 75.66649516 -73.02858356 77.33357846 -73 79 C-70.73859396 80.22895721 -68.4677143 81.43173847 -66.1875 82.625 C-65.58357422 82.95628906 -64.97964844 83.28757812 -64.35742188 83.62890625 C-48.86919596 91.63745233 -30.92386077 94.83797069 -14.0625 98.625 C17.17627817 105.66417386 17.17627817 105.66417386 29.1875 111.8125 C29.86820557 112.15869385 30.54891113 112.5048877 31.25024414 112.86157227 C36.6745197 115.69244493 41.4606237 118.87489688 46 123 C46.75667969 123.66515625 47.51335937 124.3303125 48.29296875 125.015625 C60.16617322 136.07341677 66.3084175 150.85993259 67.15625 166.96875 C67.72676312 188.0777355 61.24569965 207.53977439 46.7890625 223.23828125 C43.75211201 226.22881547 40.56407141 228.66672903 37 231 C36.03707031 231.639375 35.07414063 232.27875 34.08203125 232.9375 C17.2802717 243.33765128 -2.35067862 247.40103419 -21.9375 247.375 C-23.207146 247.37338867 -24.47679199 247.37177734 -25.78491211 247.37011719 C-36.57440211 247.23102992 -46.61210127 245.8597751 -57 243 C-58.12019531 242.69964844 -59.24039063 242.39929688 -60.39453125 242.08984375 C-76.34936721 237.25948057 -90.80841252 228.3712413 -102 216 C-103.2684375 214.63875 -103.2684375 214.63875 -104.5625 213.25 C-113.45453626 202.17854309 -118.26999728 187.65001358 -121 174 C-103.84 174 -86.68 174 -69 174 C-67.35 177.63 -65.7 181.26 -64 185 C-57.27594065 195.54454762 -47.76405463 200.80971501 -35.63500977 203.53051758 C-21.05010915 206.12912444 -4.84987791 204.91507028 7.9921875 197.203125 C15.10898528 191.92360142 21.53097294 184.16991364 23.625 175.375 C24.12152403 170.90628369 24.07987886 166.49096721 24 162 C3.66725654 150.75718891 -18.27803228 146.20496985 -40.76980591 141.36044312 C-53.5404981 138.59856253 -66.17197395 135.70830823 -78 130 C-78.93070313 129.56042969 -79.86140625 129.12085938 -80.8203125 128.66796875 C-87.87295348 125.10235778 -93.42140263 120.56875857 -99 115 C-99.86431641 114.15308594 -99.86431641 114.15308594 -100.74609375 113.2890625 C-111.12819235 102.23280166 -114.57380881 87.3357226 -114.375 72.625 C-114.36339844 71.5222876 -114.35179688 70.4195752 -114.33984375 69.28344727 C-113.99044382 51.90465465 -108.67929692 35.38579467 -96 23 C-95.505 22.43539062 -95.01 21.87078125 -94.5 21.2890625 C-71.67538648 -3.93213544 -31.2423592 -7.63702114 0 0 Z " fill="#FDFDFC" transform="translate(227,78)"/>
<path d="M0 0 C1.97711462 1.47179749 3.94968691 2.94871008 5.9140625 4.4375 C7.4368651 5.5781761 8.99129135 6.67697946 10.5625 7.75 C19.40063434 15.90827786 25.10195665 28.18314948 27 40 C27.28810547 41.66095703 27.28810547 41.66095703 27.58203125 43.35546875 C28.78769987 52.65774131 28.78769987 52.65774131 26.640625 56.31640625 C24.85805993 58.07992682 23.03657812 59.54219302 21 61 C20.0409375 62.0209375 20.0409375 62.0209375 19.0625 63.0625 C-1.90062869 82.75513604 -30.94721333 85.87759487 -58.37207031 85.18798828 C-66.46373364 84.7687029 -74.20658411 83.14551732 -82 81 C-83.12019531 80.69964844 -84.24039063 80.39929688 -85.39453125 80.08984375 C-101.34936721 75.25948057 -115.80841252 66.3712413 -127 54 C-128.2684375 52.63875 -128.2684375 52.63875 -129.5625 51.25 C-138.45453626 40.17854309 -143.26999728 25.65001358 -146 12 C-128.84 12 -111.68 12 -94 12 C-91.525 17.445 -91.525 17.445 -89 23 C-82.27594065 33.54454762 -72.76405463 38.80971501 -60.63500977 41.53051758 C-46.05010915 44.12912444 -29.84987791 42.91507028 -17.0078125 35.203125 C-11.36784062 31.0191696 -7.40176019 26.1139744 -4 20 C-3.64164063 19.4225 -3.28328125 18.845 -2.9140625 18.25 C-1.53834109 14.86360884 -1.26349783 11.35475032 -0.875 7.75 C-0.74544922 6.63238281 -0.74544922 6.63238281 -0.61328125 5.4921875 C-0.40213133 3.66222154 -0.20015455 1.83120121 0 0 Z " fill="#F7A39B" transform="translate(252,240)"/>
<path d="M0 0 C1.24910156 0.26683594 2.49820313 0.53367187 3.78515625 0.80859375 C16.97252836 3.87701022 28.88481215 9.9337946 39 19 C39.81984375 19.72703125 40.6396875 20.4540625 41.484375 21.203125 C54.73620816 33.65181676 61.78735267 49.3304397 65 67 C48.5 67 32 67 15 67 C13.35 63.7 11.7 60.4 10 57 C3.10116216 47.80154954 -5.6527941 42.18896454 -17 40 C-31.61719003 37.91431296 -46.00090929 39.3698337 -58.5390625 47.68359375 C-68.12687337 55.39552858 -71.63410941 66.29506762 -74 78 C-79.97895566 75.01684242 -83.77708817 72.33420442 -88 67 C-88.47308594 66.56558594 -88.94617188 66.13117188 -89.43359375 65.68359375 C-95.88035168 58.75453472 -98.76108397 48.56764353 -100.8125 39.5625 C-101.02640381 38.72275635 -101.24030762 37.8830127 -101.46069336 37.01782227 C-102.65097686 31.13900445 -102.65097686 31.13900445 -100.83740234 27.96582031 C-99.31457548 26.17542517 -97.72370198 24.59545263 -96 23 C-94.99423364 21.88015223 -93.99352154 20.75572541 -93 19.625 C-69.11863003 -3.7315047 -31.14618534 -7.61351197 0 0 Z " fill="#F7A39B" transform="translate(227,78)"/>
<path d="M0 0 C5.06853652 7.60280477 7.07163751 14.81607089 7 24 C6.67 24.66 6.34 25.32 6 26 C-11.16 25.67 -28.32 25.34 -46 25 C-46.33 22.36 -46.66 19.72 -47 17 C-47.66 17 -48.32 17 -49 17 C-49.33 15.68 -49.66 14.36 -50 13 C-50.66 13 -51.32 13 -52 13 C-52 12.34 -52 11.68 -52 11 C-52.66 11 -53.32 11 -54 11 C-54.28875 10.360625 -54.5775 9.72125 -54.875 9.0625 C-55.82823451 6.84793921 -55.82823451 6.84793921 -58 6 C-58 5.34 -58 4.68 -58 4 C-54.81436272 5.39327872 -52.76450389 6.98561649 -50.4375 9.5625 C-49.85871094 10.18253906 -49.27992188 10.80257812 -48.68359375 11.44140625 C-47 14 -47 14 -44 23 C-27.5 23 -11 23 6 23 C2.56907866 11.97769554 2.56907866 11.97769554 -1 1 C-0.67 0.67 -0.34 0.34 0 0 Z " fill="#DF5546" transform="translate(286,122)"/>
<path d="M0 0 C-6.51036196 3.96588087 -13.40650662 6.17765413 -20.6875 8.25 C-21.59008545 8.50797363 -22.4926709 8.76594727 -23.42260742 9.03173828 C-30.56942554 11.00976381 -37.37244838 12.12544797 -44.81640625 12.1328125 C-46.07517578 12.13410156 -47.33394531 12.13539063 -48.63085938 12.13671875 C-49.92830078 12.13285156 -51.22574219 12.12898438 -52.5625 12.125 C-53.86380859 12.12886719 -55.16511719 12.13273437 -56.50585938 12.13671875 C-58.39208008 12.13478516 -58.39208008 12.13478516 -60.31640625 12.1328125 C-62.02485718 12.13112061 -62.02485718 12.13112061 -63.76782227 12.12939453 C-66.92625724 12.00295216 -69.89786825 11.59068671 -73 11 C-73 10.67 -73 10.34 -73 10 C-66.55073408 8.91127083 -60.25201028 8.99755941 -53.72973633 9.11669922 C-36.40114288 9.43102609 -22.31572446 8.27334289 -6.671875 0.07421875 C-3.83283601 -1.06720774 -2.78400137 -1.13348627 0 0 Z " fill="#FC9688" transform="translate(257,313)"/>
<path d="M0 0 C4.19360449 0.67097672 7.40334352 2.8558394 11 5 C11.40772919 16.0539913 9.74516002 23.98263565 3 33 C-1.1722253 37.34117104 -5.62860781 41.22046094 -11 44 C-11.66 43.67 -12.32 43.34 -13 43 C-13 42.34 -13 41.68 -13 41 C-12.401875 40.71125 -11.80375 40.4225 -11.1875 40.125 C-8.80672208 38.95257974 -8.80672208 38.95257974 -6 37 C-3.8125 36.375 -3.8125 36.375 -2 36 C-1.67 34.35 -1.34 32.7 -1 31 C0.32 30.67 1.64 30.34 3 30 C3.12375 29.21625 3.2475 28.4325 3.375 27.625 C4 25 4 25 6 23 C6.90565223 20.51813307 6.90565223 20.51813307 7.625 17.6875 C7.88539063 16.74261719 8.14578125 15.79773438 8.4140625 14.82421875 C8.98728715 12.06127593 9.33781898 9.80389749 9 7 C5.3558226 4.5705484 3.28758728 4.83820425 -1 5 C-0.67 3.35 -0.34 1.7 0 0 Z " fill="#E05646" transform="translate(241,235)"/>
<path d="M0 0 C4.0531516 0.18520552 8.03344831 1.17875024 12 2 C12.63953613 2.13180664 13.27907227 2.26361328 13.93798828 2.39941406 C22.37355124 4.17164298 30.61993607 6.37996432 38.8125 9.0625 C39.57127441 9.30774414 40.33004883 9.55298828 41.11181641 9.80566406 C44.88955272 11.08286208 47.96187014 12.31273028 51 15 C45.44634785 14.2426838 45.44634785 14.2426838 43.16796875 13.00390625 C40.43051414 11.73629213 38.06487813 11.54345216 35.0625 11.3125 C34.04285156 11.22613281 33.02320313 11.13976562 31.97265625 11.05078125 C29.13299361 11.0022719 26.74922797 11.32661635 24 12 C24 11.01 24 10.02 24 9 C22.35 8.34 20.7 7.68 19 7 C19 6.34 19 5.68 19 5 C16.62515638 4.83079995 14.25016522 4.66457137 11.875 4.5 C11.20984375 4.45230469 10.5446875 4.40460938 9.859375 4.35546875 C5.89764586 4.08358538 1.97061445 3.95052194 -2 4 C-2 2 -2 2 0 0 Z " fill="#DD5748" transform="translate(190,220)"/>
<path d="M0 0 C13.37197723 7.47257551 20.01292418 19.60836427 24.3125 34 C25.49971342 39.23705358 25.1600149 44.66616999 25 50 C24.34 50 23.68 50 23 50 C22.90912109 48.86111328 22.90912109 48.86111328 22.81640625 47.69921875 C22.69072266 46.20841797 22.69072266 46.20841797 22.5625 44.6875 C22.44068359 43.20830078 22.44068359 43.20830078 22.31640625 41.69921875 C22.08187441 38.90624401 22.08187441 38.90624401 21 36 C20.96125079 34.33378384 20.9549714 32.66605828 21 31 C20.34 30.67 19.68 30.34 19 30 C18.5859375 27.93359375 18.5859375 27.93359375 18.375 25.4375 C18.30023438 24.61121094 18.22546875 23.78492188 18.1484375 22.93359375 C18.07496094 21.97646484 18.07496094 21.97646484 18 21 C17.01 21 16.02 21 15 21 C14.5875 19.7625 14.175 18.525 13.75 17.25 C12.42323556 13.65694414 10.87647849 11.57891175 8 9 C8 8.34 8 7.68 8 7 C6.8553125 6.5978125 6.8553125 6.5978125 5.6875 6.1875 C3.11011382 5.04865495 1.73045136 4.18583329 0 2 C0 1.34 0 0.68 0 0 Z " fill="#E6AFA8" transform="translate(254,242)"/>
<path d="M0 0 C0.97699258 3.23086083 1.06648361 6.03747355 0.95703125 9.40234375 C0.41910052 26.12033175 0.41910052 26.12033175 5 42 C5.40863281 42.9178125 5.81726563 43.835625 6.23828125 44.78125 C8.45905663 49.4565666 11.00416556 53.78364041 14 58 C13.01 58 12.02 58 11 58 C8.64276511 55.46815512 8 54.52809907 8 51 C7.34 51 6.68 51 6 51 C4.74335022 48.09399739 4 46.20395416 4 43 C3.34 43 2.68 43 2 43 C1.514136 41.48129302 1.03668799 39.95989301 0.5625 38.4375 C0.29566406 37.59058594 0.02882813 36.74367187 -0.24609375 35.87109375 C-2.13003528 28.69649776 -2.18286682 21.61676392 -2.1875 14.25 C-2.20586914 12.68958984 -2.20586914 12.68958984 -2.22460938 11.09765625 C-2.22654297 10.10121094 -2.22847656 9.10476562 -2.23046875 8.078125 C-2.23663208 6.72315918 -2.23663208 6.72315918 -2.24291992 5.34082031 C-2 3 -2 3 0 0 Z " fill="#D45C52" transform="translate(113,134)"/>
<path d="M0 0 C0.48726562 0.27972656 0.97453125 0.55945313 1.4765625 0.84765625 C3.97057455 2.2579067 6.48353776 3.63019313 9 5 C10.01707031 5.56589844 11.03414062 6.13179688 12.08203125 6.71484375 C24.91163556 13.54037247 38.61055651 17.10962213 53 19 C53 19.33 53 19.66 53 20 C50.24993392 20.0270203 47.50013454 20.04684883 44.75 20.0625 C43.97269531 20.07087891 43.19539063 20.07925781 42.39453125 20.08789062 C41.26337891 20.09272461 41.26337891 20.09272461 40.109375 20.09765625 C39.07248535 20.10551147 39.07248535 20.10551147 38.01464844 20.11352539 C35.90026102 19.99437971 34.03358485 19.57618237 32 19 C32 18.01 32 17.02 32 16 C30.14375 15.938125 30.14375 15.938125 28.25 15.875 C20.90137186 15.08432482 14.60351754 11.18574015 8.37890625 7.41015625 C6.33947407 6.20123176 4.37454579 5.21304827 2.1875 4.3125 C0.6096875 3.6628125 0.6096875 3.6628125 -1 3 C-0.67 2.01 -0.34 1.02 0 0 Z " fill="#E15648" transform="translate(137,305)"/>
<path d="M0 0 C0.66 0 1.32 0 2 0 C2 0.99 2 1.98 2 3 C2.66 3 3.32 3 4 3 C4.02505615 3.82725586 4.0501123 4.65451172 4.07592773 5.50683594 C4.19196349 9.25471192 4.314656 13.00234125 4.4375 16.75 C4.47681641 18.05195313 4.51613281 19.35390625 4.55664062 20.6953125 C4.59853516 21.94570312 4.64042969 23.19609375 4.68359375 24.484375 C4.72025146 25.63647461 4.75690918 26.78857422 4.79467773 27.97558594 C4.89984402 30.90933832 4.89984402 30.90933832 5.60302734 33.31811523 C5.73402832 33.87313721 5.8650293 34.42815918 6 35 C5.03455202 36.0333974 4.02848579 37.02932138 3 38 C2.00011074 40.49018012 2.00011074 40.49018012 1.3125 43.1875 C1.06113281 44.08855469 0.80976563 44.98960937 0.55078125 45.91796875 C0.36902344 46.60503906 0.18726563 47.29210937 0 48 C-0.66 47.67 -1.32 47.34 -2 47 C-1.69255859 45.7315625 -1.69255859 45.7315625 -1.37890625 44.4375 C2.2223395 29.27436001 3.15652439 15.38805639 0 0 Z " fill="#D35B4F" transform="translate(291,230)"/>
<path d="M0 0 C5.10456549 -0.17303612 8.27794713 0.04207564 13 2 C15.98978344 2.46113609 18.9858089 2.75045912 22 3 C22 3.66 22 4.32 22 5 C22.969375 4.938125 23.93875 4.87625 24.9375 4.8125 C27.96575392 4.80645558 30.28865405 5.33168606 33.125 6.375 C38.92018018 8.494208 44.90639731 9.19944941 51 10 C50.67 10.66 50.34 11.32 50 12 C43.82558369 11.41077376 37.94213456 10.44556515 31.9140625 9.00390625 C31.09046234 8.81030014 30.26686218 8.61669403 29.41830444 8.41722107 C27.6950707 8.01053709 25.97246816 7.60116977 24.25048828 7.18920898 C21.61294968 6.55962357 18.97271201 5.94242858 16.33203125 5.32617188 C14.65086664 4.92782126 12.96987067 4.52875816 11.2890625 4.12890625 C10.50157623 3.94550186 9.71408997 3.76209747 8.90274048 3.57313538 C5.46094517 2.74124695 2.97555512 1.98370342 0 0 Z " fill="#D46157" transform="translate(186,170)"/>
<path d="M0 0 C0.86625 0.53625 1.7325 1.0725 2.625 1.625 C2.625 2.615 2.625 3.605 2.625 4.625 C3.56472656 5.04072266 3.56472656 5.04072266 4.5234375 5.46484375 C5.34070313 5.82707031 6.15796875 6.18929687 7 6.5625 C7.81210937 6.92214844 8.62421875 7.28179687 9.4609375 7.65234375 C13.00589778 9.24565622 14.01552433 10.06116101 15.625 13.625 C14.965 14.285 14.305 14.945 13.625 15.625 C12.97015625 15.11710937 12.3153125 14.60921875 11.640625 14.0859375 C4.96875708 9.05376593 -1.78973366 5.1197824 -9.375 1.625 C-9.375 1.295 -9.375 0.965 -9.375 0.625 C-5.48068237 -1.13671512 -4.05334448 -1.65136257 0 0 Z " fill="#FBF0EC" transform="translate(248.375,232.375)"/>
<path d="M0 0 C-0.99 0.33 -1.98 0.66 -3 1 C-3.66 0.34 -4.32 -0.32 -5 -1 C-7.31765729 -1.71927295 -9.65095874 -2.3909893 -12 -3 C-12 -3.66 -12 -4.32 -12 -5 C-13.299375 -4.979375 -14.59875 -4.95875 -15.9375 -4.9375 C-17.29165633 -4.91600546 -18.64756083 -4.92851801 -20 -5 C-20.33 -5.33 -20.66 -5.66 -21 -6 C-23.65656878 -6.10183014 -26.28101425 -6.14072051 -28.9375 -6.125 C-29.70570068 -6.12306641 -30.47390137 -6.12113281 -31.26538086 -6.11914062 C-36.89950682 -6.07646234 -42.40669462 -5.710261 -48 -5 C-34.44872638 -14.03418242 -12.4128242 -8.7721914 0 0 Z " fill="#DF5548" transform="translate(228,125)"/>
<path d="M0 0 C17.16 0 34.32 0 52 0 C52.495 2.475 52.495 2.475 53 5 C52.01 4.34 51.02 3.68 50 3 C50.33 2.34 50.66 1.68 51 1 C35.16 1.33 19.32 1.66 3 2 C3.33 3.32 3.66 4.64 4 6 C3.34 7.32 2.68 8.64 2 10 C1.34 6.7 0.68 3.4 0 0 Z " fill="#FE9788" transform="translate(106,252)"/>
<path d="M0 0 C7.37817125 1.61177442 14.72101505 3.35423214 22.0625 5.125 C23.21427734 5.40214844 24.36605469 5.67929688 25.55273438 5.96484375 C28.36865757 6.64253481 31.18440764 7.32093598 34 8 C34 8.33 34 8.66 34 9 C32.10424749 9.02721176 30.20838021 9.04649136 28.3125 9.0625 C26.72888672 9.07990234 26.72888672 9.07990234 25.11328125 9.09765625 C22.27732494 9.00869903 19.76960244 8.55392049 17 8 C16.67 8.33 16.34 8.66 16 9 C14.00041636 9.04080783 11.99954746 9.04254356 10 9 C10.33 7.68 10.66 6.36 11 5 C7.37 4.01 3.74 3.02 0 2 C0 1.34 0 0.68 0 0 Z " fill="#DC5747" transform="translate(155,211)"/>
<path d="M0 0 C0.33 0 0.66 0 1 0 C0.9592334 0.70906494 0.9184668 1.41812988 0.87646484 2.14868164 C-0.19583806 20.20299232 -0.19583806 20.20299232 1.52734375 38.14453125 C1.97120753 40.82605538 2.08519085 43.28892648 2 46 C-2.73492761 38.89760858 -2.30899979 30.86530343 -2.25 22.625 C-2.25773437 21.5525 -2.26546875 20.48 -2.2734375 19.375 C-2.25715932 12.68466953 -1.597906 6.49900036 0 0 Z " fill="#FDE6DF" transform="translate(115,128)"/>
<path d="M0 0 C0.9178125 0.53109375 1.835625 1.0621875 2.78125 1.609375 C9.10704087 5.2556222 15.41356715 8.83851223 22 12 C21.01 13.485 21.01 13.485 20 15 C17.03 14.67 14.06 14.34 11 14 C11 12.02 11 10.04 11 8 C9.35 7.67 7.7 7.34 6 7 C6 6.34 6 5.68 6 5 C5.38125 4.9175 4.7625 4.835 4.125 4.75 C2 4 2 4 0.8671875 1.953125 C0.58101562 1.30859375 0.29484375 0.6640625 0 0 Z " fill="#E25141" transform="translate(133,198)"/>
<path d="M0 0 C2 3 2 3 4 14 C-11.18 14 -26.36 14 -42 14 C-42 13.67 -42 13.34 -42 13 C-27.81 12.67 -13.62 12.34 1 12 C0.505 6.06 0.505 6.06 0 0 Z " fill="#FF9C8B" transform="translate(288,131)"/>
<path d="M0 0 C-6.82524893 4.55016595 -14.44595178 4.3130123 -22.375 4.25 C-23.86966797 4.26160156 -23.86966797 4.26160156 -25.39453125 4.2734375 C-26.34457031 4.27085937 -27.29460937 4.26828125 -28.2734375 4.265625 C-29.13372559 4.26336914 -29.99401367 4.26111328 -30.88037109 4.25878906 C-33 4 -33 4 -35 2 C-34.04746338 1.96241577 -34.04746338 1.96241577 -33.07568359 1.92407227 C-30.17528458 1.80743211 -27.27515651 1.68501607 -24.375 1.5625 C-23.37597656 1.52318359 -22.37695312 1.48386719 -21.34765625 1.44335938 C-14.17128007 1.13444252 -7.17656501 -0.1435313 0 0 Z " fill="#E25346" transform="translate(227,279)"/>
<path d="M0 0 C8.97275557 1.63712476 17.78785944 3.88971173 26.625 6.125 C28.12103818 6.50152294 29.61713155 6.87782669 31.11328125 7.25390625 C34.7428267 8.16674666 38.37161811 9.0825441 42 10 C42 10.33 42 10.66 42 11 C36.22486021 11.27500666 32.04718923 10.87566982 26.6640625 8.859375 C22.03372937 7.36571915 17.23224096 6.61636487 12.453125 5.74609375 C9.42378273 5.09156391 6.84446666 4.1920157 4 3 C3.34 3 2.68 3 2 3 C2 2.34 2 1.68 2 1 C1.34 0.67 0.68 0.34 0 0 Z " fill="#FDDEDA" transform="translate(176,168)"/>
<path d="M0 0 C5.93085452 -0.49423788 9.94046242 0.0400008 15.13671875 2.9765625 C17.64621331 4.35494316 20.26530425 5.17959128 23 6 C23 6.66 23 7.32 23 8 C24.32 8.33 25.64 8.66 27 9 C26.67 9.99 26.34 10.98 26 12 C24.96101563 11.45730469 23.92203125 10.91460937 22.8515625 10.35546875 C15.39954038 6.51503125 8.22653843 2.89843194 0 1 C0 0.67 0 0.34 0 0 Z " fill="#D55E50" transform="translate(236,182)"/>
<path d="M0 0 C1.2281888 3.68456641 0.26653125 4.72244596 -1.2890625 8.09765625 C-2.42492657 11.13702878 -2.30128585 13.80637002 -2 17 C-1.00916033 19.23408113 -1.00916033 19.23408113 0 21 C-0.33 21.66 -0.66 22.32 -1 23 C-3.475 22.01 -3.475 22.01 -6 21 C-5.71483617 14.29864995 -5.03972129 5.03972129 0 0 Z " fill="#DF5346" transform="translate(159,136)"/>
<path d="M0 0 C3.96 0.33 7.92 0.66 12 1 C11.814375 1.9075 11.62875 2.815 11.4375 3.75 C11.03276424 6.75660854 11.17475269 8.1880462 12 11 C6.55336178 8.01228098 3.04900256 5.46279625 0 0 Z " fill="#F2A79E" transform="translate(140,145)"/>
<path d="M0 0 C0.66 0 1.32 0 2 0 C2 3.63 2 7.26 2 11 C4.94729537 8.36893239 4.94729537 8.36893239 6 6 C5.01 6.33 4.02 6.66 3 7 C3.33 6.01 3.66 5.02 4 4 C5.98 3.67 7.96 3.34 10 3 C9.07248802 4.9630836 8.13263547 6.92034027 7.1875 8.875 C6.66542969 9.96554687 6.14335937 11.05609375 5.60546875 12.1796875 C4 15 4 15 1 17 C0.67 11.39 0.34 5.78 0 0 Z " fill="#FDEBE3" transform="translate(278,276)"/>
<path d="M0 0 C0.33 0 0.66 0 1 0 C0.67 2.31 0.34 4.62 0 7 C-0.99 7.33 -1.98 7.66 -3 8 C-3.2475 8.886875 -3.495 9.77375 -3.75 10.6875 C-5.3660884 14.97013426 -8.01194786 17.71730646 -12 20 C-12.99 19.67 -13.98 19.34 -15 19 C-14.34 19 -13.68 19 -13 19 C-12.73960937 18.41863281 -12.47921875 17.83726562 -12.2109375 17.23828125 C-10.92236336 14.85649744 -9.4688508 13.16420468 -7.625 11.1875 C-4.45809615 7.66357568 -2.18470839 4.19464011 0 0 Z " fill="#E45649" transform="translate(285,284)"/>
<path d="M0 0 C6.875 1.875 6.875 1.875 8 3 C10.31469584 3.4896472 12.63794836 3.89901 14.96875 4.3046875 C15.97421875 4.64886719 15.97421875 4.64886719 17 5 C17.33 5.99 17.66 6.98 18 8 C19.299375 8.12375 20.59875 8.2475 21.9375 8.375 C24.15234375 8.5859375 24.15234375 8.5859375 26 9 C26.33 9.66 26.66 10.32 27 11 C20.3610476 10.21800801 14.52285678 8.15452616 8.4375 5.5 C7.72271484 5.19118896 7.00792969 4.88237793 6.27148438 4.56420898 C1.12957565 2.2591513 1.12957565 2.2591513 0 0 Z " fill="#D35F54" transform="translate(158,159)"/>
<path d="M0 0 C9.66900428 0.44181742 19.61073985 3.70830854 29 6 C29 6.33 29 6.66 29 7 C24.26090032 6.63097175 19.78035008 6.21747461 15.1875 4.9375 C9.58923462 3.37921995 3.75698858 3.84203385 -2 4 C-2 2 -2 2 0 0 Z " fill="#D5645A" transform="translate(190,220)"/>
<path d="M0 0 C2.03219488 3.40351338 2.36891039 6.3232927 2.625 10.25 C2.69976562 11.32765625 2.77453125 12.4053125 2.8515625 13.515625 C2.92503906 14.74539062 2.92503906 14.74539062 3 16 C0.85279101 13.85279101 0.4565779 12.92209857 0 10 C0.33 9.34 0.66 8.68 1 8 C-0.32 8.99 -1.64 9.98 -3 11 C-3.66 10.67 -4.32 10.34 -5 10 C-3.84414715 6.08788267 -2.64465038 3.1254959 0 0 Z " fill="#FDE8E4" transform="translate(125,108)"/>
<path d="M0 0 C0.99 0.33 1.98 0.66 3 1 C3 2.32 3 3.64 3 5 C3.66 5 4.32 5 5 5 C5 5.66 5 6.32 5 7 C6.98 7.66 8.96 8.32 11 9 C11 9.99 11 10.98 11 12 C11.99 12.33 12.98 12.66 14 13 C14.6875 15.0625 14.6875 15.0625 15 17 C8.9059104 14.51722276 3.70447168 8.37212045 0 3 C0 2.01 0 1.02 0 0 Z " fill="#E45649" transform="translate(161,259)"/>
<path d="M0 0 C3.624581 1.20819367 3.40170957 1.80341913 5 5 C5.99 5.33 6.98 5.66 8 6 C8.433125 6.78375 8.86625 7.5675 9.3125 8.375 C11.40372047 11.62800962 13.49036073 12.51815231 17 14 C17 14.99 17 15.98 17 17 C10.06139071 12.81715043 4.54053304 7.89418408 -1 2 C-0.67 1.34 -0.34 0.68 0 0 Z " fill="#FDE4E0" transform="translate(125,187)"/>
<path d="M0 0 C5.06853652 7.60280477 7.07163751 14.81607089 7 24 C6.67 24.66 6.34 25.32 6 26 C4.68 25.67 3.36 25.34 2 25 C2.33 24.34 2.66 23.68 3 23 C3.99 23 4.98 23 6 23 C5.20905464 20.45810688 4.41726571 17.91648159 3.625 15.375 C3.40328125 14.66214844 3.1815625 13.94929687 2.953125 13.21484375 C1.67835076 9.12806752 0.36920458 5.05642851 -1 1 C-0.67 0.67 -0.34 0.34 0 0 Z " fill="#E15243" transform="translate(286,122)"/>
<path d="M0 0 C3 1 3 1 4.31640625 3.14453125 C4.93322266 4.46517578 4.93322266 4.46517578 5.5625 5.8125 C5.97628906 6.68519531 6.39007813 7.55789063 6.81640625 8.45703125 C7.54629108 10.02519966 8.27237554 11.59515129 8.9921875 13.16796875 C10.03814502 15.27942669 10.03814502 15.27942669 12.5625 17.5 C14.86376327 19.86027002 15.64621864 20.81596775 16 24 C14.33333333 22.33333333 12.66666667 20.66666667 11 19 C10.51273438 18.56042969 10.02546875 18.12085938 9.5234375 17.66796875 C7.55197773 15.50947305 6.31669347 13.19996479 4.9375 10.625 C4.43089844 9.68914062 3.92429687 8.75328125 3.40234375 7.7890625 C2.11637781 5.23145893 1.01628448 2.67443283 0 0 Z " fill="#FD9789" transform="translate(112,272)"/>
<path d="M0 0 C5.91577376 2.74660925 10.90479475 5.93467666 16 10 C13 11 13 11 11.0625 10.125 C10.381875 9.75375 9.70125 9.3825 9 9 C7.6757713 8.63215869 6.34386088 8.28797019 5 8 C4.67 6.35 4.34 4.7 4 3 C2.68 3 1.36 3 0 3 C0 2.01 0 1.02 0 0 Z " fill="#FBE9E0" transform="translate(256,190)"/>
<path d="M0 0 C0 0.99 0 1.98 0 3 C-4.41029783 5.20949832 -8.48940324 5.2370648 -13.3125 5.125 C-14.05306641 5.11597656 -14.79363281 5.10695313 -15.55664062 5.09765625 C-17.37123467 5.07424213 -19.18566071 5.03837615 -21 5 C-21 4.67 -21 4.34 -21 4 C-19.44539062 3.69255859 -19.44539062 3.69255859 -17.859375 3.37890625 C-16.48957311 3.10682231 -15.11978201 2.83468404 -13.75 2.5625 C-13.06808594 2.42779297 -12.38617188 2.29308594 -11.68359375 2.15429688 C-8.98862132 1.61791887 -6.30476482 1.07720036 -3.640625 0.40234375 C-2 0 -2 0 0 0 Z " fill="#E45345" transform="translate(240,320)"/>
<path d="M0 0 C1.11503906 0.09023437 2.23007813 0.18046875 3.37890625 0.2734375 C5.83519469 0.5557695 8.06928743 0.94175041 10.4375 1.625 C10.4375 2.285 10.4375 2.945 10.4375 3.625 C8.55804688 3.51671875 8.55804688 3.51671875 6.640625 3.40625 C4.98958668 3.312441 3.33854483 3.21869426 1.6875 3.125 C0.45 3.05345703 0.45 3.05345703 -0.8125 2.98046875 C-1.61171875 2.93535156 -2.4109375 2.89023438 -3.234375 2.84375 C-3.9675293 2.80185547 -4.70068359 2.75996094 -5.45605469 2.71679688 C-7.48983614 2.62816662 -9.52678825 2.625 -11.5625 2.625 C-11.5625 1.965 -11.5625 1.305 -11.5625 0.625 C-7.55288596 -0.37927716 -4.10865906 -0.3523068 0 0 Z " fill="#FC988B" transform="translate(203.5625,114.375)"/>
<path d="M0 0 C0.99 0.33 1.98 0.66 3 1 C4.00149718 3.5765521 4.81834357 6.03717632 5.5625 8.6875 C5.9800478 10.1081967 6.39801045 11.52877155 6.81640625 12.94921875 C7.01379395 13.63290527 7.21118164 14.3165918 7.41455078 15.02099609 C8.20826414 17.70399878 9.09531649 20.35265425 10 23 C9.34 23 8.68 23 8 23 C5.27262807 19.2373691 4.08457106 15.39005488 2.875 10.9375 C2.54242188 9.72964844 2.20984375 8.52179688 1.8671875 7.27734375 C1.22631694 4.85531494 0.59475646 2.43364634 0 0 Z " fill="#DF5647" transform="translate(104,253)"/>
<path d="M0 0 C7.66030756 1.11332019 14.08630327 3.55629555 21 7 C15.46469114 8.67844849 11.15666971 6.06266789 6 4 C4.00379834 3.32204472 2.00461299 2.65266469 0 2 C0 1.34 0 0.68 0 0 Z " fill="#FC978A" transform="translate(229,79)"/>
<path d="M0 0 C-0.1875 1.875 -0.1875 1.875 -1 4 C-2.65697379 4.69040574 -4.3255761 5.3530635 -6 6 C-7.70779973 7.62449243 -9.37550757 9.29220027 -11 11 C-12.31175986 12.02813611 -13.6369893 13.04084432 -15 14 C-13.64101764 9.77533744 -11.86283346 7.6105921 -8.5 4.75 C-7.30890625 3.72132812 -7.30890625 3.72132812 -6.09375 2.671875 C-2.74766355 0 -2.74766355 0 0 0 Z " fill="#E4564A" transform="translate(175,122)"/>
<path d="M0 0 C0.66 0.33 1.32 0.66 2 1 C-6.261959 10.59453303 -6.261959 10.59453303 -11 14 C-11.66 13.67 -12.32 13.34 -13 13 C-8.71 8.71 -4.42 4.42 0 0 Z " fill="#FB988A" transform="translate(138,94)"/>
<path d="M0 0 C-4.75 3 -4.75 3 -7 3 C-7 3.99 -7 4.98 -7 6 C-8.65 6.33 -10.3 6.66 -12 7 C-11.67 6.01 -11.34 5.02 -11 4 C-11.99 3.67 -12.98 3.34 -14 3 C-12.04486839 2.303447 -10.08577524 1.61800435 -8.125 0.9375 C-7.03445312 0.55464844 -5.94390625 0.17179687 -4.8203125 -0.22265625 C-2 -1 -2 -1 0 0 Z " fill="#FB988D" transform="translate(172,79)"/>
<path d="M0 0 C8 9.42857143 8 9.42857143 8 14 C5.5625 13.3125 5.5625 13.3125 3 12 C2.3125 9.5625 2.3125 9.5625 2 7 C1.34 6.01 0.68 5.02 0 4 C0 2.68 0 1.36 0 0 Z " fill="#FCE3DA" transform="translate(281,210)"/>
<path d="M0 0 C2.25195063 1.26747489 4.50155747 2.53882868 6.75 3.8125 C7.38421875 4.16892578 8.0184375 4.52535156 8.671875 4.89257812 C11.94804537 6.75248735 15.04985101 8.63839084 18 11 C13.43545749 10.45660208 10.0271824 9.20536179 6 7 C6 6.34 6 5.68 6 5 C5.38125 4.9175 4.7625 4.835 4.125 4.75 C2 4 2 4 0.8671875 1.953125 C0.58101562 1.30859375 0.29484375 0.6640625 0 0 Z " fill="#CF6254" transform="translate(133,198)"/>
<path d="M0 0 C0.90901939 3.04842865 1.06173367 5.59661636 0.87890625 8.765625 C0.83056641 9.65507812 0.78222656 10.54453125 0.73242188 11.4609375 C0.64831055 12.84152344 0.64831055 12.84152344 0.5625 14.25 C0.51029297 15.18585938 0.45808594 16.12171875 0.40429688 17.0859375 C0.27493175 19.39098887 0.13997966 21.69557289 0 24 C-0.33 24 -0.66 24 -1 24 C-1.22580354 20.56341292 -1.42762697 17.12582782 -1.625 13.6875 C-1.68945312 12.71103516 -1.75390625 11.73457031 -1.8203125 10.72851562 C-1.871875 9.79072266 -1.9234375 8.85292969 -1.9765625 7.88671875 C-2.02893066 7.02264404 -2.08129883 6.15856934 -2.13525391 5.26831055 C-2 3 -2 3 0 0 Z " fill="#DD7A71" transform="translate(113,134)"/>
<path d="M0 0 C4 1 4 1 6 2 C6 4.97 6 7.94 6 11 C5.34 11 4.68 11 4 11 C2.68 7.37 1.36 3.74 0 0 Z " fill="#DC5848" transform="translate(286,217)"/>
<path d="M0 0 C3.04261908 0.3259949 3.9801219 0.97895261 6.125 3.25 C7.8640616 5.80062367 9.00276322 8.09139271 10 11 C9.01 11.495 9.01 11.495 8 12 C5.33333333 8 2.66666667 4 0 0 Z " fill="#FB988B" transform="translate(232,128)"/>
<path d="M0 0 C10.55808656 -0.18451025 10.55808656 -0.18451025 15 1 C15 1.66 15 2.32 15 3 C15.66 3.33 16.32 3.66 17 4 C11.2190275 3.36934845 5.6556294 2.34844868 0 1 C0 0.67 0 0.34 0 0 Z " fill="#FBE5DC" transform="translate(193,220)"/>
<path d="M0 0 C6.14154225 0.58490879 12.00679849 1.54066252 18 3 C18 3.33 18 3.66 18 4 C16.04196493 4.05389087 14.08351091 4.09274217 12.125 4.125 C11.03445312 4.14820313 9.94390625 4.17140625 8.8203125 4.1953125 C6 4 6 4 4 2 C2.68252676 1.30251417 1.35085807 0.63040043 0 0 Z " fill="#D35C4F" transform="translate(171,216)"/>
<path d="M0 0 C6.19887485 -0.37952295 10.4477112 0.1647887 16 3 C16 3.33 16 3.66 16 4 C10.39538469 3.57910004 5.27913453 3.08386889 0 1 C0 0.67 0 0.34 0 0 Z " fill="#DD564F" transform="translate(236,182)"/>
<path d="M0 0 C5.94 2.475 5.94 2.475 12 5 C12 5.33 12 5.66 12 6 C10.58249437 5.88490339 9.16598831 5.75746342 7.75 5.625 C6.96109375 5.55539062 6.1721875 5.48578125 5.359375 5.4140625 C2.914123 4.98492887 1.15163097 4.21399362 -1 3 C-0.67 2.01 -0.34 1.02 0 0 Z " fill="#FA9F8E" transform="translate(173,275)"/>
<path d="M0 0 C1.93816735 0.1141866 3.87555099 0.24173423 5.8125 0.375 C6.89144531 0.44460937 7.97039062 0.51421875 9.08203125 0.5859375 C12 1 12 1 15 3 C15 3.66 15 4.32 15 5 C13.06077578 4.54901762 11.12366406 4.08894441 9.1875 3.625 C8.10855469 3.36976563 7.02960938 3.11453125 5.91796875 2.8515625 C3 2 3 2 0 0 Z " fill="#FBEADA" transform="translate(219,226)"/>
<path d="M0 0 C4.29 0.33 8.58 0.66 13 1 C13 1.66 13 2.32 13 3 C13.66 3.33 14.32 3.66 15 4 C9.72684667 3.5547115 4.98229776 2.91626837 0 1 C0 0.67 0 0.34 0 0 Z " fill="#FCE3D9" transform="translate(161,212)"/>
<path d="M0 0 C0.99 0.66 1.98 1.32 3 2 C0.89828133 2.8394882 -1.20646625 3.67139656 -3.3125 4.5 C-4.48425781 4.9640625 -5.65601563 5.428125 -6.86328125 5.90625 C-10 7 -10 7 -13 7 C-13 6.34 -13 5.68 -13 5 C-10.90278769 4.10846039 -8.79693661 3.23721781 -6.6875 2.375 C-4.92986328 1.64410156 -4.92986328 1.64410156 -3.13671875 0.8984375 C-2.10160156 0.60195313 -1.06648437 0.30546875 0 0 Z " fill="#E55146" transform="translate(254,314)"/>
<path d="M0 0 C2.09715785 3.14573677 2.52004559 5.01456251 3.125 8.6875 C3.29257812 9.68136719 3.46015625 10.67523438 3.6328125 11.69921875 C3.75398438 12.45847656 3.87515625 13.21773437 4 14 C3.01 13.67 2.02 13.34 1 13 C0.67 8.71 0.34 4.42 0 0 Z " fill="#FC9083" transform="translate(288,131)"/>
<path d="M0 0 C6.75 1.625 6.75 1.625 9 5 C8.67 5.99 8.34 6.98 8 8 C6.84772177 7.23883449 5.7033614 6.46567307 4.5625 5.6875 C3.92441406 5.25824219 3.28632813 4.82898438 2.62890625 4.38671875 C1 3 1 3 0 0 Z " fill="#EEACA7" transform="translate(143,148)"/>
<path d="M0 0 C1.41805831 0.28482368 2.83440379 0.57818144 4.25 0.875 C5.03890625 1.03742188 5.8278125 1.19984375 6.640625 1.3671875 C8.96831144 1.99150075 10.89031952 2.84838542 13 4 C11.02 4.33 9.04 4.66 7 5 C7 4.67 7 4.34 7 4 C4.69 3.34 2.38 2.68 0 2 C0 1.34 0 0.68 0 0 Z " fill="#FDDCDC" transform="translate(233,182)"/>
<path d="M0 0 C2.72869407 0.03287583 5.2966618 0.56397771 8 1 C8 1.66 8 2.32 8 3 C4.7 3.33 1.4 3.66 -2 4 C-2 2 -2 2 0 0 Z " fill="#DC5749" transform="translate(190,220)"/>
<path d="M0 0 C0.99 0 1.98 0 3 0 C3 0.66 3 1.32 3 2 C3.61875 2.28875 4.2375 2.5775 4.875 2.875 C7 4 7 4 9 6 C8.67 6.99 8.34 7.98 8 9 C6.66368764 7.6905332 5.33102075 6.37734515 4 5.0625 C3.2575 4.33160156 2.515 3.60070312 1.75 2.84765625 C0 1 0 1 0 0 Z " fill="#DD5444" transform="translate(264,95)"/>
<path d="M0 0 C4.0042343 3.49087093 5.62671065 5.64951939 6 11 C3.34730103 8.52414762 1.31989897 6.40973899 0 3 C0 2.01 0 1.02 0 0 Z " fill="#FEE2D9" transform="translate(118,176)"/>
<path d="M0 0 C8.57142857 -0.28571429 8.57142857 -0.28571429 12 2 C7.48281619 3.36884358 4.41225737 2.47075246 0 1 C0 0.67 0 0.34 0 0 Z " fill="#D5574B" transform="translate(225,179)"/>
<path d="M0 0 C2.97 1.65 5.94 3.3 9 5 C5.29847322 5.92538169 4.36541838 6.08174162 1 5 C0.67 3.35 0.34 1.7 0 0 Z " fill="#FBE6DF" transform="translate(150,155)"/>
<path d="M0 0 C0.53625 0.391875 1.0725 0.78375 1.625 1.1875 C-1.88038557 3.15051592 -5.50851728 4.14652388 -9.375 5.1875 C-8.375 2.1875 -8.375 2.1875 -5.5625 0.375 C-2.375 -0.8125 -2.375 -0.8125 0 0 Z " fill="#F99A8E" transform="translate(185.375,115.8125)"/>
<path d="M0 0 C0.33 1.32 0.66 2.64 1 4 C-0.9375 6.25 -0.9375 6.25 -3 8 C-3.99 7.67 -4.98 7.34 -6 7 C-4.02 4.69 -2.04 2.38 0 0 Z " fill="#FC968E" transform="translate(246,264)"/>
<path d="M0 0 C0.66 0 1.32 0 2 0 C2 0.66 2 1.32 2 2 C2.99 2.33 3.98 2.66 5 3 C5 5.64 5 8.28 5 11 C3.33167423 8.49751135 2.37618326 6.58850813 1.375 3.8125 C1.11460937 3.09707031 0.85421875 2.38164062 0.5859375 1.64453125 C0.39257812 1.10183594 0.19921875 0.55914062 0 0 Z " fill="#FDEDE9" transform="translate(272,261)"/>
<path d="M0 0 C2.97 0.99 5.94 1.98 9 3 C9.33 4.65 9.66 6.3 10 8 C8.51714758 7.04737966 7.03881799 6.08771595 5.5625 5.125 C4.73878906 4.59132812 3.91507812 4.05765625 3.06640625 3.5078125 C1 2 1 2 0 0 Z " fill="#D75F54" transform="translate(264,194)"/>
<path d="M0 0 C1.58409994 0.11487748 3.16728963 0.24234508 4.75 0.375 C6.07257813 0.47941406 6.07257813 0.47941406 7.421875 0.5859375 C9.99066382 0.99850055 11.75841015 1.71160957 14 3 C4.58997722 3.3690205 4.58997722 3.3690205 0 1 C0 0.67 0 0.34 0 0 Z " fill="#FEEBE2" transform="translate(204,176)"/>
<path d="M0 0 C2.5 2.25 2.5 2.25 5 5 C5 6.32 5 7.64 5 9 C4.34 8.67 3.68 8.34 3 8 C3 7.01 3 6.02 3 5 C2.34 5 1.68 5 1 5 C0.67 3.35 0.34 1.7 0 0 Z " fill="#FC9286" transform="translate(272,104)"/>
<path d="M0 0 C0.33 0 0.66 0 1 0 C0.67 2.31 0.34 4.62 0 7 C-1.65 7.66 -3.3 8.32 -5 9 C-3.35 6.03 -1.7 3.06 0 0 Z " fill="#D85E56" transform="translate(285,284)"/>
<path d="M0 0 C1.485 0.99 1.485 0.99 3 2 C3.40843923 4.71203652 3.13336867 7.2437142 3 10 C2.34 9.67 1.68 9.34 1 9 C0.5859375 6.93359375 0.5859375 6.93359375 0.375 4.4375 C0.30023438 3.61121094 0.22546875 2.78492188 0.1484375 1.93359375 C0.09945313 1.29550781 0.05046875 0.65742188 0 0 Z " fill="#EBA698" transform="translate(274,278)"/>
<path d="M0 0 C0.66 0 1.32 0 2 0 C1.34 3.96 0.68 7.92 0 12 C-0.99 10.68 -1.98 9.36 -3 8 C-2.34 7.34 -1.68 6.68 -1 6 C-0.60235737 4.01178687 -0.26224651 2.01055661 0 0 Z " fill="#FC958A" transform="translate(153,144)"/>
<path d="M0 0 C3.375 4.5 3.375 4.5 4 8 C3.34 8 2.68 8 2 8 C1.67 8.99 1.34 9.98 1 11 C0.67 7.37 0.34 3.74 0 0 Z " fill="#FB978B" transform="translate(283,120)"/>
<path d="M0 0 C0.99 0.33 1.98 0.66 3 1 C0.03 3.64 -2.94 6.28 -6 9 C-6 6 -6 6 -4.6875 4.39453125 C-4.130625 3.87246094 -3.57375 3.35039063 -3 2.8125 C-2.443125 2.28269531 -1.88625 1.75289063 -1.3125 1.20703125 C-0.6628125 0.60955078 -0.6628125 0.60955078 0 0 Z " fill="#E2574B" transform="translate(139,91)"/>
<path d="M0 0 C1.06546953 3.1964086 1.07427838 5.65747276 1 9 C-0.32 9 -1.64 9 -3 9 C-2.01 6.03 -1.02 3.06 0 0 Z " fill="#FCEAE0" transform="translate(119,118)"/>
<path d="M0 0 C0.99 0.33 1.98 0.66 3 1 C1.02 5.455 1.02 5.455 -1 10 C-2.31223496 6.06329512 -1.24296256 3.87511856 0 0 Z " fill="#D25F53" transform="translate(118,115)"/>
<path d="M0 0 C0 0.99 0 1.98 0 3 C-2.35438733 4.42944945 -3.48032433 5.08661261 -6.25 4.625 C-6.8275 4.41875 -7.405 4.2125 -8 4 C-2.25 0 -2.25 0 0 0 Z " fill="#FB988D" transform="translate(152,86)"/>
<path d="M0 0 C0 0.99 0 1.98 0 3 C0.99 3 1.98 3 3 3 C3 3.66 3 4.32 3 5 C0.64828869 4.40138258 -1.6859378 3.73075648 -4 3 C-4.33 2.34 -4.66 1.68 -5 1 C-2 0 -2 0 0 0 Z " fill="#FC998C" transform="translate(151,309)"/>
<path d="M0 0 C4.21912747 0.4794463 6.79663178 1.16625119 10 4 C7 5 7 5 5.17578125 4.22265625 C3.45052083 3.1484375 1.72526042 2.07421875 0 1 C0 0.67 0 0.34 0 0 Z " fill="#FDE4E1" transform="translate(247,237)"/>
<path d="M0 0 C1.67542976 0.28604898 3.34385343 0.61781233 5 1 C4.34 2.32 3.68 3.64 3 5 C2.34 5 1.68 5 1 5 C0.34 3.68 -0.32 2.36 -1 1 C-0.67 0.67 -0.34 0.34 0 0 Z " fill="#FEF1F0" transform="translate(158,161)"/>
<path d="M0 0 C0.99 0 1.98 0 3 0 C1.92598892 2.91517292 1.22189824 4.77810176 -1 7 C-1.04254356 5.00045254 -1.04080783 2.99958364 -1 1 C-0.67 0.67 -0.34 0.34 0 0 Z " fill="#D9594E" transform="translate(122,107)"/>
</svg>
